<svg width="889" height="233" viewBox="0 0 889 233" fill="none" xmlns="http://www.w3.org/2000/svg">
<g filter="url(#filter0_d_10_2)">
<path d="M104.825 123.135H752.929L721.683 157.165H70.5555L104.825 123.135Z" fill="#6D73FA"/>
<path d="M74.1949 155.665L105.444 124.635H749.515L721.023 155.665H74.1949Z" stroke="black" stroke-width="3"/>
</g>
<g filter="url(#filter1_d_10_2)">
<path d="M130.105 148.295C126.265 148.295 123.151 147.057 120.761 144.583C118.372 142.023 116.537 138.652 115.257 134.471C113.977 130.204 113.124 125.553 112.697 120.519C112.271 115.484 112.057 110.492 112.057 105.543C112.057 99.74 112.825 94.0653 114.361 88.5187C115.983 82.972 118.415 77.98 121.657 73.5427C124.985 69.02 129.167 65.436 134.201 62.7906C139.236 60.1453 145.209 58.8227 152.121 58.8227C159.119 58.8227 165.433 60.2733 171.065 63.1747C176.783 66.076 181.348 70.2147 184.761 75.5907C188.175 80.9667 189.881 87.3667 189.881 94.7907C189.881 101.447 188.857 107.164 186.809 111.943C184.761 116.721 181.988 120.647 178.489 123.719C175.076 126.705 171.236 128.924 166.969 130.375C162.788 131.825 158.521 132.508 154.169 132.423C149.817 132.252 145.764 131.399 142.009 129.863C142.436 131.911 142.649 134.001 142.649 136.135C142.735 138.268 142.393 140.273 141.625 142.151C140.943 143.943 139.663 145.436 137.785 146.631C135.993 147.74 133.433 148.295 130.105 148.295ZM153.401 112.455C156.473 112.455 159.119 111.345 161.337 109.127C163.641 106.823 164.793 104.177 164.793 101.191C164.793 98.1187 163.641 95.4733 161.337 93.2547C159.119 90.9507 156.473 89.7987 153.401 89.7987C150.329 89.7987 147.641 90.9507 145.337 93.2547C143.119 95.4733 142.009 98.1187 142.009 101.191C142.009 104.177 143.119 106.823 145.337 109.127C147.641 111.345 150.329 112.455 153.401 112.455ZM223.182 148.295C216.868 148.38 211.321 147.1 206.542 144.455C201.849 141.724 198.137 138.055 195.406 133.447C192.761 128.753 191.353 123.591 191.182 117.959C191.097 112.156 192.42 107.036 195.15 102.599C197.881 98.076 201.678 94.492 206.542 91.8467C211.406 89.2013 216.953 87.8787 223.182 87.8787C229.326 87.7933 234.745 89.0733 239.438 91.7187C244.217 94.364 248.014 97.948 250.83 102.471C253.646 106.993 255.14 112.156 255.31 117.959C255.396 123.505 254.073 128.583 251.342 133.191C248.612 137.713 244.814 141.34 239.95 144.071C235.086 146.716 229.497 148.124 223.182 148.295ZM223.566 129.607C225.87 129.607 227.876 128.711 229.582 126.919C231.289 125.127 232.142 123.036 232.142 120.647C232.142 118.257 231.289 116.209 229.582 114.503C227.876 112.711 225.87 111.815 223.566 111.815C221.262 111.815 219.257 112.711 217.55 114.503C215.844 116.209 214.99 118.257 214.99 120.647C214.99 123.036 215.844 125.127 217.55 126.919C219.257 128.711 221.262 129.607 223.566 129.607ZM274.128 148.167C271.227 148.167 268.838 147.228 266.96 145.351C265.168 143.388 263.803 140.785 262.864 137.543C261.926 134.3 261.286 130.588 260.944 126.407C260.603 122.225 260.432 117.916 260.432 113.479C260.432 110.492 260.475 107.463 260.56 104.391C260.731 101.233 261.158 98.332 261.84 95.6867C262.608 93.0413 263.846 90.908 265.552 89.2867C267.344 87.58 269.862 86.7267 273.104 86.7267C275.408 86.7267 277.499 87.2813 279.376 88.3907C281.254 89.4147 282.448 90.9933 282.96 93.1267C284.923 91.3347 287.398 90.0547 290.384 89.2867C293.456 88.4333 296.614 88.0067 299.856 88.0067C302.587 88.0067 305.36 88.6893 308.176 90.0547C310.992 91.3347 313.382 93.1267 315.344 95.4307C317.307 97.7347 318.288 100.337 318.288 103.239C318.288 105.713 317.35 108.06 315.472 110.279C313.68 112.497 311.12 113.607 307.792 113.607C306.342 113.607 305.147 113.436 304.208 113.095C303.27 112.668 302.374 112.284 301.52 111.943C300.667 111.601 299.643 111.431 298.448 111.431C295.291 111.431 292.39 112.711 289.744 115.271C287.184 117.745 285.904 121.116 285.904 125.383C285.904 127.601 285.819 130.033 285.648 132.679C285.563 135.239 285.179 137.713 284.496 140.103C283.899 142.492 282.79 144.455 281.168 145.991C279.547 147.441 277.2 148.167 274.128 148.167ZM364.618 148.167C361.632 148.167 358.602 147.569 355.53 146.375C352.458 145.18 349.685 143.431 347.21 141.127C344.821 138.823 343.072 136.049 341.962 132.807C341.194 130.673 340.64 128.028 340.298 124.871C339.957 121.713 339.701 118.343 339.53 114.759C339.445 111.175 339.402 107.676 339.402 104.263C336.074 104.177 332.874 103.879 329.802 103.367C326.816 102.855 324.341 101.916 322.378 100.551C320.501 99.1 319.562 97.0093 319.562 94.2787C319.562 90.9507 320.458 88.476 322.25 86.8547C324.042 85.148 326.432 84.0387 329.418 83.5267C332.49 82.9293 335.818 82.588 339.402 82.5027C339.488 79.8573 339.701 77.1693 340.042 74.4387C340.469 71.6227 341.152 69.02 342.09 66.6307C343.029 64.2413 344.352 62.3213 346.058 60.8707C347.765 59.3347 349.984 58.5667 352.714 58.5667C356.384 58.5667 359.029 59.7187 360.65 62.0227C362.357 64.3267 363.424 67.3133 363.85 70.9827C364.277 74.652 364.448 78.492 364.362 82.5027C368.8 82.4173 372.725 82.588 376.138 83.0147C379.552 83.4413 382.24 84.38 384.202 85.8307C386.165 87.2813 387.146 89.5853 387.146 92.7427C387.146 95.9853 386.037 98.4173 383.818 100.039C381.6 101.66 378.698 102.769 375.114 103.367C371.53 103.879 367.733 104.177 363.722 104.263C363.722 105.884 363.68 107.591 363.594 109.383C363.594 111.089 363.594 112.839 363.594 114.631C363.594 119.495 363.936 122.951 364.618 124.999C365.13 126.535 365.813 127.516 366.666 127.943C367.605 128.369 368.757 128.625 370.122 128.711C371.488 128.711 373.152 128.967 375.114 129.479C377.077 129.905 378.613 130.972 379.722 132.679C380.832 134.3 381.386 136.391 381.386 138.951C381.386 141.852 379.85 144.113 376.778 145.735C373.792 147.356 369.738 148.167 364.618 148.167ZM411.472 148.167C407.291 148.167 403.451 147.527 399.952 146.247C396.539 144.967 393.808 143.047 391.76 140.487C389.712 137.841 388.688 134.513 388.688 130.503C388.688 127.089 389.712 124.188 391.76 121.799C393.808 119.409 396.539 117.575 399.952 116.295C403.451 115.015 407.291 114.375 411.472 114.375C413.947 114.375 416.208 114.588 418.256 115.015C420.304 115.356 421.712 115.783 422.48 116.295C422.48 114.332 421.67 112.625 420.048 111.175C418.427 109.639 415.611 108.871 411.6 108.871C409.723 108.871 408.23 109.041 407.12 109.383C406.096 109.639 405.158 109.98 404.304 110.407C403.451 110.833 402.47 111.217 401.36 111.559C400.336 111.815 398.928 111.943 397.136 111.943C394.491 111.943 392.358 111.26 390.736 109.895C389.2 108.444 388.432 106.268 388.432 103.367C388.432 100.721 389.158 98.46 390.608 96.5827C392.144 94.62 394.107 92.9987 396.496 91.7187C398.886 90.4387 401.446 89.5 404.176 88.9027C406.992 88.3053 409.68 88.0067 412.24 88.0067C419.835 88.0067 426.022 89.4147 430.8 92.2307C435.579 94.9613 439.12 98.5453 441.424 102.983C443.728 107.42 444.88 112.241 444.88 117.447C444.88 120.348 444.624 123.036 444.112 125.511C443.686 127.985 443.088 129.905 442.32 131.271C443.515 132.295 444.411 133.489 445.008 134.855C445.691 136.22 446.032 137.628 446.032 139.079C446.032 141.468 445.222 143.601 443.6 145.479C442.064 147.271 439.846 148.167 436.944 148.167C434.726 148.167 432.976 147.825 431.696 147.143C430.416 146.46 429.136 145.564 427.856 144.455C425.808 145.649 423.547 146.588 421.072 147.271C418.598 147.868 415.398 148.167 411.472 148.167ZM414.032 135.239C415.995 135.239 417.446 134.855 418.384 134.087C419.408 133.233 419.92 132.295 419.92 131.271C419.92 130.247 419.408 129.351 418.384 128.583C417.446 127.729 415.995 127.303 414.032 127.303C412.155 127.303 410.704 127.729 409.68 128.583C408.656 129.351 408.144 130.247 408.144 131.271C408.144 132.295 408.656 133.233 409.68 134.087C410.704 134.855 412.155 135.239 414.032 135.239ZM479.149 147.911C475.907 147.911 473.304 146.759 471.341 144.455C469.379 142.151 467.885 138.993 466.861 134.983C465.923 130.887 465.283 126.151 464.941 120.775C459.736 120.348 455.683 119.324 452.781 117.703C449.965 116.081 448.557 113.265 448.557 109.255C448.557 105.244 449.965 102.428 452.781 100.807C455.683 99.1 459.736 97.9907 464.941 97.4787C465.368 89.884 466.52 83.1427 468.397 77.2547C470.36 71.3667 473.517 66.8013 477.869 63.5587C482.221 60.2307 488.323 58.5667 496.173 58.5667C500.525 58.5667 504.323 59.5906 507.565 61.6386C510.893 63.6867 512.557 66.8867 512.557 71.2387C512.557 75.7613 511.107 79.0893 508.205 81.2227C505.389 83.2707 501.976 84.6787 497.965 85.4467C494.808 86.044 492.589 87.452 491.309 89.6707C490.029 91.804 489.219 94.3213 488.877 97.2227C496.557 97.3933 502.403 98.204 506.413 99.6547C510.509 101.105 512.557 104.305 512.557 109.255C512.557 112.497 511.619 114.972 509.741 116.679C507.864 118.3 505.133 119.409 501.549 120.007C498.051 120.604 493.912 120.945 489.133 121.031C489.133 124.444 489.176 127.559 489.261 130.375C489.347 133.105 489.389 135.623 489.389 137.927C489.389 140.657 488.835 142.748 487.725 144.199C486.616 145.649 485.251 146.631 483.629 147.143C482.093 147.655 480.6 147.911 479.149 147.911ZM546.432 148.295C540.118 148.38 534.571 147.1 529.792 144.455C525.099 141.724 521.387 138.055 518.656 133.447C516.011 128.753 514.603 123.591 514.432 117.959C514.347 112.156 515.67 107.036 518.4 102.599C521.131 98.076 524.928 94.492 529.792 91.8467C534.656 89.2013 540.203 87.8787 546.432 87.8787C552.576 87.7933 557.995 89.0733 562.688 91.7187C567.467 94.364 571.264 97.948 574.08 102.471C576.896 106.993 578.39 112.156 578.56 117.959C578.646 123.505 577.323 128.583 574.592 133.191C571.862 137.713 568.064 141.34 563.2 144.071C558.336 146.716 552.747 148.124 546.432 148.295ZM546.816 129.607C549.12 129.607 551.126 128.711 552.832 126.919C554.539 125.127 555.392 123.036 555.392 120.647C555.392 118.257 554.539 116.209 552.832 114.503C551.126 112.711 549.12 111.815 546.816 111.815C544.512 111.815 542.507 112.711 540.8 114.503C539.094 116.209 538.24 118.257 538.24 120.647C538.24 123.036 539.094 125.127 540.8 126.919C542.507 128.711 544.512 129.607 546.816 129.607ZM599.908 147.911C595.556 147.911 592.314 146.289 590.18 143.047C588.047 139.719 586.639 134.769 585.956 128.199C585.274 121.543 584.932 113.223 584.932 103.239C584.932 96.668 585.018 90.652 585.188 85.1907C585.444 79.7293 586.042 75.036 586.98 71.1106C587.919 67.1 589.412 64.028 591.46 61.8947C593.508 59.676 596.367 58.5667 600.036 58.5667C603.706 58.5667 606.564 59.676 608.612 61.8947C610.66 64.028 612.154 67.1 613.092 71.1106C614.031 75.036 614.586 79.7293 614.756 85.1907C615.012 90.652 615.14 96.668 615.14 103.239C615.14 118.257 614.074 129.479 611.94 136.903C609.892 144.241 605.882 147.911 599.908 147.911ZM636.533 86.0867C632.352 86.0867 628.811 84.5933 625.909 81.6067C623.008 78.5347 621.557 74.8226 621.557 70.4706C621.557 67.5693 622.197 64.9667 623.477 62.6627C624.843 60.3587 626.635 58.524 628.853 57.1587C631.157 55.708 633.717 54.9827 636.533 54.9827C639.264 54.9827 641.739 55.708 643.957 57.1587C646.261 58.524 648.096 60.3587 649.461 62.6627C650.827 64.9667 651.509 67.5693 651.509 70.4706C651.509 73.372 650.827 76.0173 649.461 78.4067C648.096 80.7107 646.261 82.588 643.957 84.0387C641.739 85.404 639.264 86.0867 636.533 86.0867ZM636.533 148.167C633.12 148.167 630.56 147.185 628.853 145.223C627.232 143.26 626.123 140.273 625.525 136.263C625.013 132.167 624.715 126.919 624.629 120.519C624.629 114.119 624.885 108.871 625.397 104.775C625.995 100.679 627.147 97.692 628.853 95.8147C630.56 93.852 633.12 92.8707 636.533 92.8707C639.947 92.8707 642.464 93.852 644.085 95.8147C645.792 97.692 646.944 100.679 647.541 104.775C648.139 108.871 648.437 114.119 648.437 120.519C648.523 126.919 648.267 132.167 647.669 136.263C647.072 140.273 645.92 143.26 644.213 145.223C642.507 147.185 639.947 148.167 636.533 148.167ZM687.432 148.295C681.118 148.38 675.571 147.1 670.792 144.455C666.099 141.724 662.387 138.055 659.656 133.447C657.011 128.753 655.603 123.591 655.432 117.959C655.347 112.156 656.67 107.036 659.4 102.599C662.131 98.076 665.928 94.492 670.792 91.8467C675.656 89.2013 681.203 87.8787 687.432 87.8787C693.576 87.7933 698.995 89.0733 703.688 91.7187C708.467 94.364 712.264 97.948 715.08 102.471C717.896 106.993 719.39 112.156 719.56 117.959C719.646 123.505 718.323 128.583 715.592 133.191C712.862 137.713 709.064 141.34 704.2 144.071C699.336 146.716 693.747 148.124 687.432 148.295ZM687.816 129.607C690.12 129.607 692.126 128.711 693.832 126.919C695.539 125.127 696.392 123.036 696.392 120.647C696.392 118.257 695.539 116.209 693.832 114.503C692.126 112.711 690.12 111.815 687.816 111.815C685.512 111.815 683.507 112.711 681.8 114.503C680.094 116.209 679.24 118.257 679.24 120.647C679.24 123.036 680.094 125.127 681.8 126.919C683.507 128.711 685.512 129.607 687.816 129.607Z" fill="#F9F8FC"/>
</g>
<path d="M6.516 209.279C5.412 209.279 4.428 208.883 3.564 208.091C2.724 207.275 2.064 205.979 1.584 204.203C1.128 202.427 0.9 200.111 0.9 197.255C0.9 195.311 1.212 193.535 1.836 191.927C2.46 190.319 3.324 188.939 4.428 187.787C5.532 186.611 6.816 185.711 8.28 185.087C9.744 184.439 11.304 184.115 12.96 184.115C15.744 184.115 17.832 184.595 19.224 185.555C20.64 186.491 21.348 187.787 21.348 189.443C21.348 190.691 21.048 191.615 20.448 192.215C19.872 192.791 19.044 193.175 17.964 193.367C16.908 193.559 15.66 193.655 14.22 193.655C13.404 193.655 12.624 193.775 11.88 194.015C11.136 194.231 10.524 194.567 10.044 195.023C9.588 195.455 9.324 195.995 9.252 196.643C9.252 196.763 9.24 196.871 9.216 196.967C9.648 196.943 10.08 196.931 10.512 196.931C10.944 196.931 11.376 196.931 11.808 196.931C12.864 196.931 13.896 196.943 14.904 196.967C15.936 196.967 16.872 197.051 17.712 197.219C18.552 197.363 19.224 197.651 19.728 198.083C20.232 198.515 20.484 199.151 20.484 199.991C20.484 200.903 20.232 201.587 19.728 202.043C19.224 202.475 18.552 202.763 17.712 202.907C16.872 203.051 15.936 203.123 14.904 203.123C13.896 203.099 12.864 203.087 11.808 203.087C11.424 203.087 11.04 203.099 10.656 203.123C10.296 203.123 9.924 203.123 9.54 203.123C9.588 203.459 9.624 203.807 9.648 204.167C9.672 204.527 9.684 204.899 9.684 205.283C9.684 205.955 9.588 206.603 9.396 207.227C9.228 207.827 8.916 208.319 8.46 208.703C8.004 209.087 7.356 209.279 6.516 209.279ZM32.1899 209.315C30.3899 209.315 28.8059 208.967 27.4379 208.271C26.0939 207.551 25.0379 206.579 24.2699 205.355C23.5259 204.107 23.1539 202.679 23.1539 201.071C23.1539 199.511 23.5259 198.071 24.2699 196.751C25.0379 195.431 26.0819 194.375 27.4019 193.583C28.7459 192.791 30.2819 192.395 32.0099 192.395C33.6179 192.395 34.9979 192.719 36.1499 193.367C37.3019 194.015 38.1779 194.843 38.7779 195.851C39.4019 196.835 39.7139 197.879 39.7139 198.983C39.7139 200.087 39.4619 200.999 38.9579 201.719C38.4539 202.415 37.7939 202.955 36.9779 203.339C36.1859 203.699 35.3339 203.939 34.4219 204.059C33.5099 204.179 32.6339 204.203 31.7939 204.131C30.9539 204.035 30.2459 203.891 29.6699 203.699C30.1019 204.395 30.6419 204.875 31.2899 205.139C31.9619 205.379 32.6579 205.487 33.3779 205.463C34.1219 205.415 34.7939 205.331 35.3939 205.211C36.1379 205.043 36.7499 205.079 37.2299 205.319C37.7099 205.559 37.9619 205.943 37.9859 206.471C38.0099 206.903 37.8539 207.335 37.5179 207.767C37.2059 208.199 36.6299 208.571 35.7899 208.883C34.9499 209.171 33.7499 209.315 32.1899 209.315ZM29.7779 199.307C30.0179 199.691 30.3659 199.967 30.8219 200.135C31.2779 200.279 31.7339 200.327 32.1899 200.279C32.6699 200.231 33.0659 200.099 33.3779 199.883C33.7139 199.667 33.8819 199.367 33.8819 198.983C33.8819 198.575 33.7139 198.215 33.3779 197.903C33.0659 197.567 32.5619 197.399 31.8659 197.399C31.1939 197.399 30.6779 197.615 30.3179 198.047C29.9579 198.455 29.7779 198.875 29.7779 199.307ZM45.0059 209.315C44.1899 209.315 43.5179 209.051 42.9899 208.523C42.4859 207.971 42.1019 207.239 41.8379 206.327C41.5739 205.415 41.3939 204.371 41.2979 203.195C41.2019 202.019 41.1539 200.807 41.1539 199.559C41.1539 198.719 41.1659 197.867 41.1899 197.003C41.2379 196.115 41.3579 195.299 41.5499 194.555C41.7659 193.811 42.1139 193.211 42.5939 192.755C43.0979 192.275 43.8059 192.035 44.7179 192.035C45.3659 192.035 45.9539 192.191 46.4819 192.503C47.0099 192.791 47.3459 193.235 47.4899 193.835C48.0419 193.331 48.7379 192.971 49.5779 192.755C50.4419 192.515 51.3299 192.395 52.2419 192.395C53.0099 192.395 53.7899 192.587 54.5819 192.971C55.3739 193.331 56.0459 193.835 56.5979 194.483C57.1499 195.131 57.4259 195.863 57.4259 196.679C57.4259 197.375 57.1619 198.035 56.6339 198.659C56.1299 199.283 55.4099 199.595 54.4739 199.595C54.0659 199.595 53.7299 199.547 53.4659 199.451C53.2019 199.331 52.9499 199.223 52.7099 199.127C52.4699 199.031 52.1819 198.983 51.8459 198.983C50.9579 198.983 50.1419 199.343 49.3979 200.063C48.6779 200.759 48.3179 201.707 48.3179 202.907C48.3179 203.531 48.2939 204.215 48.2459 204.959C48.2219 205.679 48.1139 206.375 47.9219 207.047C47.7539 207.719 47.4419 208.271 46.9859 208.703C46.5299 209.111 45.8699 209.315 45.0059 209.315ZM72.7411 209.315C71.7811 209.315 71.0971 209.051 70.6891 208.523C70.3051 207.971 70.0771 207.287 70.0051 206.471C69.9331 205.631 69.8971 204.791 69.8971 203.951C69.8971 202.679 69.7171 201.659 69.3571 200.891C68.9971 200.099 68.3611 199.703 67.4491 199.703C66.6331 199.703 66.0331 200.099 65.6491 200.891C65.2651 201.659 65.0731 202.679 65.0731 203.951C65.0731 204.791 65.0371 205.619 64.9651 206.435C64.9171 207.251 64.7011 207.935 64.3171 208.487C63.9331 209.015 63.2371 209.279 62.2291 209.279C61.4851 209.279 60.8611 209.003 60.3571 208.451C59.8771 207.899 59.5051 207.179 59.2411 206.291C58.9771 205.403 58.7851 204.443 58.6651 203.411C58.5691 202.379 58.5211 201.383 58.5211 200.423C58.5211 199.463 58.5691 198.479 58.6651 197.471C58.7611 196.463 58.9291 195.527 59.1691 194.663C59.4331 193.799 59.8051 193.103 60.2851 192.575C60.7651 192.047 61.3891 191.783 62.1571 191.783C63.5251 191.783 64.3771 192.407 64.7131 193.655C65.0011 193.343 65.4571 193.055 66.0811 192.791C66.7291 192.503 67.4611 192.359 68.2771 192.359C70.1251 192.359 71.6371 192.827 72.8131 193.763C73.9891 194.699 74.8411 195.995 75.3691 197.651C75.9211 199.283 76.1851 201.179 76.1611 203.339C76.1611 204.443 76.0531 205.451 75.8371 206.363C75.6451 207.251 75.2971 207.971 74.7931 208.523C74.3131 209.051 73.6291 209.315 72.7411 209.315ZM83.7394 209.315C82.5634 209.315 81.4834 209.135 80.4994 208.775C79.5394 208.415 78.7714 207.875 78.1954 207.155C77.6194 206.411 77.3314 205.475 77.3314 204.347C77.3314 203.387 77.6194 202.571 78.1954 201.899C78.7714 201.227 79.5394 200.711 80.4994 200.351C81.4834 199.991 82.5634 199.811 83.7394 199.811C84.4354 199.811 85.0714 199.871 85.6474 199.991C86.2234 200.087 86.6194 200.207 86.8354 200.351C86.8354 199.799 86.6074 199.319 86.1514 198.911C85.6954 198.479 84.9034 198.263 83.7754 198.263C83.2474 198.263 82.8274 198.311 82.5154 198.407C82.2274 198.479 81.9634 198.575 81.7234 198.695C81.4834 198.815 81.2074 198.923 80.8954 199.019C80.6074 199.091 80.2114 199.127 79.7074 199.127C78.9634 199.127 78.3634 198.935 77.9074 198.551C77.4754 198.143 77.2594 197.531 77.2594 196.715C77.2594 195.971 77.4634 195.335 77.8714 194.807C78.3034 194.255 78.8554 193.799 79.5274 193.439C80.1994 193.079 80.9194 192.815 81.6874 192.647C82.4794 192.479 83.2354 192.395 83.9554 192.395C86.0914 192.395 87.8314 192.791 89.1754 193.583C90.5194 194.351 91.5154 195.359 92.1634 196.607C92.8114 197.855 93.1354 199.211 93.1354 200.675C93.1354 201.491 93.0634 202.247 92.9194 202.943C92.7994 203.639 92.6314 204.179 92.4154 204.563C92.7514 204.851 93.0034 205.187 93.1714 205.571C93.3634 205.955 93.4594 206.351 93.4594 206.759C93.4594 207.431 93.2314 208.031 92.7754 208.559C92.3434 209.063 91.7194 209.315 90.9034 209.315C90.2794 209.315 89.7874 209.219 89.4274 209.027C89.0674 208.835 88.7074 208.583 88.3474 208.271C87.7714 208.607 87.1354 208.871 86.4394 209.063C85.7434 209.231 84.8434 209.315 83.7394 209.315ZM84.4594 205.679C85.0114 205.679 85.4194 205.571 85.6834 205.355C85.9714 205.115 86.1154 204.851 86.1154 204.563C86.1154 204.275 85.9714 204.023 85.6834 203.807C85.4194 203.567 85.0114 203.447 84.4594 203.447C83.9314 203.447 83.5234 203.567 83.2354 203.807C82.9474 204.023 82.8034 204.275 82.8034 204.563C82.8034 204.851 82.9474 205.115 83.2354 205.355C83.5234 205.571 83.9314 205.679 84.4594 205.679ZM109.128 209.315C108.168 209.315 107.484 209.051 107.076 208.523C106.692 207.971 106.464 207.287 106.392 206.471C106.32 205.631 106.284 204.791 106.284 203.951C106.284 202.679 106.104 201.659 105.744 200.891C105.384 200.099 104.748 199.703 103.836 199.703C103.02 199.703 102.42 200.099 102.036 200.891C101.652 201.659 101.46 202.679 101.46 203.951C101.46 204.791 101.424 205.619 101.352 206.435C101.304 207.251 101.088 207.935 100.704 208.487C100.32 209.015 99.6238 209.279 98.6158 209.279C97.8718 209.279 97.2478 209.003 96.7438 208.451C96.2638 207.899 95.8918 207.179 95.6278 206.291C95.3638 205.403 95.1718 204.443 95.0518 203.411C94.9558 202.379 94.9078 201.383 94.9078 200.423C94.9078 199.463 94.9558 198.479 95.0518 197.471C95.1478 196.463 95.3158 195.527 95.5558 194.663C95.8198 193.799 96.1918 193.103 96.6718 192.575C97.1518 192.047 97.7758 191.783 98.5438 191.783C99.9118 191.783 100.764 192.407 101.1 193.655C101.388 193.343 101.844 193.055 102.468 192.791C103.116 192.503 103.848 192.359 104.664 192.359C106.512 192.359 108.024 192.827 109.2 193.763C110.376 194.699 111.228 195.995 111.756 197.651C112.308 199.283 112.572 201.179 112.548 203.339C112.548 204.443 112.44 205.451 112.224 206.363C112.032 207.251 111.684 207.971 111.18 208.523C110.7 209.051 110.016 209.315 109.128 209.315ZM122.214 209.315C120.438 209.315 118.902 208.895 117.606 208.055C116.334 207.215 115.35 206.123 114.654 204.779C113.982 203.435 113.646 202.031 113.646 200.567C113.646 198.695 114.018 197.159 114.762 195.959C115.53 194.759 116.502 193.871 117.678 193.295C118.854 192.695 120.078 192.395 121.35 192.395C121.95 192.395 122.562 192.467 123.186 192.611C123.81 192.731 124.398 192.947 124.95 193.259C124.854 192.227 124.638 191.219 124.302 190.235C123.99 189.227 123.834 188.207 123.834 187.175C123.834 186.119 124.158 185.339 124.806 184.835C125.454 184.331 126.15 184.079 126.894 184.079C127.758 184.079 128.502 184.355 129.126 184.907C129.75 185.459 130.278 186.191 130.71 187.103C131.166 188.015 131.526 189.047 131.79 190.199C132.054 191.327 132.246 192.491 132.366 193.691C132.486 194.891 132.546 196.043 132.546 197.147C132.546 197.507 132.522 198.059 132.474 198.803C132.45 199.547 132.342 200.375 132.15 201.287C131.958 202.199 131.646 203.123 131.214 204.059C130.806 204.995 130.218 205.859 129.45 206.651C128.706 207.443 127.746 208.091 126.57 208.595C125.394 209.075 123.942 209.315 122.214 209.315ZM122.43 203.627C123.078 203.627 123.642 203.387 124.122 202.907C124.602 202.403 124.842 201.815 124.842 201.143C124.842 200.471 124.602 199.883 124.122 199.379C123.642 198.875 123.078 198.623 122.43 198.623C121.782 198.623 121.206 198.875 120.702 199.379C120.222 199.883 119.982 200.471 119.982 201.143C119.982 201.815 120.222 202.403 120.702 202.907C121.206 203.387 121.782 203.627 122.43 203.627ZM142.65 209.351C140.874 209.375 139.314 209.015 137.97 208.271C136.65 207.503 135.606 206.471 134.838 205.175C134.094 203.855 133.698 202.403 133.65 200.819C133.626 199.187 133.998 197.747 134.766 196.499C135.534 195.227 136.602 194.219 137.97 193.475C139.338 192.731 140.898 192.359 142.65 192.359C144.378 192.335 145.902 192.695 147.222 193.439C148.566 194.183 149.634 195.191 150.426 196.463C151.218 197.735 151.638 199.187 151.686 200.819C151.71 202.379 151.338 203.807 150.57 205.103C149.802 206.375 148.734 207.395 147.366 208.163C145.998 208.907 144.426 209.303 142.65 209.351ZM142.758 204.095C143.406 204.095 143.97 203.843 144.45 203.339C144.93 202.835 145.17 202.247 145.17 201.575C145.17 200.903 144.93 200.327 144.45 199.847C143.97 199.343 143.406 199.091 142.758 199.091C142.11 199.091 141.546 199.343 141.066 199.847C140.586 200.327 140.346 200.903 140.346 201.575C140.346 202.247 140.586 202.835 141.066 203.339C141.546 203.843 142.11 204.095 142.758 204.095ZM178.203 209.315C177.363 209.315 176.667 209.099 176.115 208.667C175.587 208.211 175.227 207.647 175.035 206.975C174.843 206.303 174.723 205.559 174.675 204.743C174.627 203.903 174.603 203.063 174.603 202.223C174.627 201.359 174.627 200.567 174.603 199.847C174.579 199.127 174.507 198.551 174.387 198.119C174.267 197.687 174.039 197.471 173.703 197.471C173.223 197.471 172.887 197.675 172.695 198.083C172.503 198.467 172.407 198.995 172.407 199.667C172.407 200.315 172.443 201.023 172.515 201.791C172.611 202.559 172.707 203.327 172.803 204.095C172.899 204.839 172.947 205.499 172.947 206.075C172.947 207.275 172.671 208.103 172.119 208.559C171.591 209.015 170.859 209.243 169.923 209.243C168.987 209.243 168.159 208.859 167.439 208.091C166.743 207.299 166.155 206.291 165.675 205.067C165.219 203.819 164.871 202.475 164.631 201.035C164.391 199.595 164.271 198.227 164.271 196.931C164.271 195.347 164.439 193.811 164.775 192.323C165.135 190.835 165.663 189.503 166.359 188.327C167.079 187.151 167.967 186.215 169.023 185.519C170.079 184.823 171.327 184.475 172.767 184.475C173.895 184.475 174.831 184.727 175.575 185.231C176.319 185.711 176.907 186.323 177.339 187.067C177.795 187.811 178.107 188.567 178.275 189.335C178.443 188.567 178.743 187.811 179.175 187.067C179.607 186.323 180.195 185.711 180.939 185.231C181.683 184.727 182.607 184.475 183.711 184.475C185.535 184.475 187.083 185.039 188.355 186.167C189.651 187.295 190.635 188.855 191.307 190.847C191.979 192.815 192.315 195.107 192.315 197.723C192.315 198.947 192.183 200.243 191.919 201.611C191.655 202.955 191.271 204.215 190.767 205.391C190.287 206.543 189.699 207.491 189.003 208.235C188.307 208.955 187.515 209.315 186.627 209.315C185.667 209.315 184.911 209.075 184.359 208.595C183.807 208.115 183.531 207.275 183.531 206.075C183.531 205.499 183.579 204.839 183.675 204.095C183.771 203.327 183.867 202.559 183.963 201.791C184.059 201.023 184.107 200.315 184.107 199.667C184.107 198.995 184.011 198.467 183.819 198.083C183.651 197.675 183.327 197.471 182.847 197.471C182.511 197.471 182.271 197.687 182.127 198.119C182.007 198.551 181.923 199.127 181.875 199.847C181.851 200.543 181.839 201.323 181.839 202.187C181.839 203.027 181.815 203.867 181.767 204.707C181.743 205.547 181.635 206.303 181.443 206.975C181.275 207.647 180.915 208.211 180.363 208.667C179.811 209.099 179.091 209.315 178.203 209.315ZM199.896 209.315C198.72 209.315 197.64 209.135 196.656 208.775C195.696 208.415 194.928 207.875 194.352 207.155C193.776 206.411 193.488 205.475 193.488 204.347C193.488 203.387 193.776 202.571 194.352 201.899C194.928 201.227 195.696 200.711 196.656 200.351C197.64 199.991 198.72 199.811 199.896 199.811C200.592 199.811 201.228 199.871 201.804 199.991C202.38 200.087 202.776 200.207 202.992 200.351C202.992 199.799 202.764 199.319 202.308 198.911C201.852 198.479 201.06 198.263 199.932 198.263C199.404 198.263 198.984 198.311 198.672 198.407C198.384 198.479 198.12 198.575 197.88 198.695C197.64 198.815 197.364 198.923 197.052 199.019C196.764 199.091 196.368 199.127 195.864 199.127C195.12 199.127 194.52 198.935 194.064 198.551C193.632 198.143 193.416 197.531 193.416 196.715C193.416 195.971 193.62 195.335 194.028 194.807C194.46 194.255 195.012 193.799 195.684 193.439C196.356 193.079 197.076 192.815 197.844 192.647C198.636 192.479 199.392 192.395 200.112 192.395C202.248 192.395 203.988 192.791 205.332 193.583C206.676 194.351 207.672 195.359 208.32 196.607C208.968 197.855 209.292 199.211 209.292 200.675C209.292 201.491 209.22 202.247 209.076 202.943C208.956 203.639 208.788 204.179 208.572 204.563C208.908 204.851 209.16 205.187 209.328 205.571C209.52 205.955 209.616 206.351 209.616 206.759C209.616 207.431 209.388 208.031 208.932 208.559C208.5 209.063 207.876 209.315 207.06 209.315C206.436 209.315 205.944 209.219 205.584 209.027C205.224 208.835 204.864 208.583 204.504 208.271C203.928 208.607 203.292 208.871 202.596 209.063C201.9 209.231 201 209.315 199.896 209.315ZM200.616 205.679C201.168 205.679 201.576 205.571 201.84 205.355C202.128 205.115 202.272 204.851 202.272 204.563C202.272 204.275 202.128 204.023 201.84 203.807C201.576 203.567 201.168 203.447 200.616 203.447C200.088 203.447 199.68 203.567 199.392 203.807C199.104 204.023 198.96 204.275 198.96 204.563C198.96 204.851 199.104 205.115 199.392 205.355C199.68 205.571 200.088 205.679 200.616 205.679ZM221.206 209.315C220.366 209.315 219.514 209.147 218.65 208.811C217.786 208.475 217.006 207.983 216.31 207.335C215.638 206.687 215.146 205.907 214.834 204.995C214.618 204.395 214.462 203.651 214.366 202.763C214.27 201.875 214.198 200.927 214.15 199.919C214.126 198.911 214.114 197.927 214.114 196.967C213.178 196.943 212.278 196.859 211.414 196.715C210.574 196.571 209.878 196.307 209.326 195.923C208.798 195.515 208.534 194.927 208.534 194.159C208.534 193.223 208.786 192.527 209.29 192.071C209.794 191.591 210.466 191.279 211.306 191.135C212.17 190.967 213.106 190.871 214.114 190.847C214.138 190.103 214.198 189.347 214.294 188.579C214.414 187.787 214.606 187.055 214.87 186.383C215.134 185.711 215.506 185.171 215.986 184.763C216.466 184.331 217.09 184.115 217.858 184.115C218.89 184.115 219.634 184.439 220.09 185.087C220.57 185.735 220.87 186.575 220.99 187.607C221.11 188.639 221.158 189.719 221.134 190.847C222.382 190.823 223.486 190.871 224.446 190.991C225.406 191.111 226.162 191.375 226.714 191.783C227.266 192.191 227.542 192.839 227.542 193.727C227.542 194.639 227.23 195.323 226.606 195.779C225.982 196.235 225.166 196.547 224.158 196.715C223.15 196.859 222.082 196.943 220.954 196.967C220.954 197.423 220.942 197.903 220.918 198.407C220.918 198.887 220.918 199.379 220.918 199.883C220.918 201.251 221.014 202.223 221.206 202.799C221.35 203.231 221.542 203.507 221.782 203.627C222.046 203.747 222.37 203.819 222.754 203.843C223.138 203.843 223.606 203.915 224.158 204.059C224.71 204.179 225.142 204.479 225.454 204.959C225.766 205.415 225.922 206.003 225.922 206.723C225.922 207.539 225.49 208.175 224.626 208.631C223.786 209.087 222.646 209.315 221.206 209.315ZM232.116 191.855C230.94 191.855 229.944 191.435 229.128 190.595C228.312 189.731 227.904 188.687 227.904 187.463C227.904 186.647 228.084 185.915 228.444 185.267C228.828 184.619 229.332 184.103 229.956 183.719C230.604 183.311 231.324 183.107 232.116 183.107C232.884 183.107 233.58 183.311 234.204 183.719C234.852 184.103 235.368 184.619 235.752 185.267C236.136 185.915 236.328 186.647 236.328 187.463C236.328 188.279 236.136 189.023 235.752 189.695C235.368 190.343 234.852 190.871 234.204 191.279C233.58 191.663 232.884 191.855 232.116 191.855ZM232.116 209.315C231.156 209.315 230.436 209.039 229.956 208.487C229.5 207.935 229.188 207.095 229.02 205.967C228.876 204.815 228.792 203.339 228.768 201.539C228.768 199.739 228.84 198.263 228.984 197.111C229.152 195.959 229.476 195.119 229.956 194.591C230.436 194.039 231.156 193.763 232.116 193.763C233.076 193.763 233.784 194.039 234.24 194.591C234.72 195.119 235.044 195.959 235.212 197.111C235.38 198.263 235.464 199.739 235.464 201.539C235.488 203.339 235.416 204.815 235.248 205.967C235.08 207.095 234.756 207.935 234.276 208.487C233.796 209.039 233.076 209.315 232.116 209.315ZM243.911 209.315C242.735 209.315 241.655 209.135 240.671 208.775C239.711 208.415 238.943 207.875 238.367 207.155C237.791 206.411 237.503 205.475 237.503 204.347C237.503 203.387 237.791 202.571 238.367 201.899C238.943 201.227 239.711 200.711 240.671 200.351C241.655 199.991 242.735 199.811 243.911 199.811C244.607 199.811 245.243 199.871 245.819 199.991C246.395 200.087 246.791 200.207 247.007 200.351C247.007 199.799 246.779 199.319 246.323 198.911C245.867 198.479 245.075 198.263 243.947 198.263C243.419 198.263 242.999 198.311 242.687 198.407C242.399 198.479 242.135 198.575 241.895 198.695C241.655 198.815 241.379 198.923 241.067 199.019C240.779 199.091 240.383 199.127 239.879 199.127C239.135 199.127 238.535 198.935 238.079 198.551C237.647 198.143 237.431 197.531 237.431 196.715C237.431 195.971 237.635 195.335 238.043 194.807C238.475 194.255 239.027 193.799 239.699 193.439C240.371 193.079 241.091 192.815 241.859 192.647C242.651 192.479 243.407 192.395 244.127 192.395C246.263 192.395 248.003 192.791 249.347 193.583C250.691 194.351 251.687 195.359 252.335 196.607C252.983 197.855 253.307 199.211 253.307 200.675C253.307 201.491 253.235 202.247 253.091 202.943C252.971 203.639 252.803 204.179 252.587 204.563C252.923 204.851 253.175 205.187 253.343 205.571C253.535 205.955 253.631 206.351 253.631 206.759C253.631 207.431 253.403 208.031 252.947 208.559C252.515 209.063 251.891 209.315 251.075 209.315C250.451 209.315 249.959 209.219 249.599 209.027C249.239 208.835 248.879 208.583 248.519 208.271C247.943 208.607 247.307 208.871 246.611 209.063C245.915 209.231 245.015 209.315 243.911 209.315ZM244.631 205.679C245.183 205.679 245.591 205.571 245.855 205.355C246.143 205.115 246.287 204.851 246.287 204.563C246.287 204.275 246.143 204.023 245.855 203.807C245.591 203.567 245.183 203.447 244.631 203.447C244.103 203.447 243.695 203.567 243.407 203.807C243.119 204.023 242.975 204.275 242.975 204.563C242.975 204.851 243.119 205.115 243.407 205.355C243.695 205.571 244.103 205.679 244.631 205.679ZM261.64 209.315C259.528 209.315 257.848 208.967 256.6 208.271C255.352 207.575 254.728 206.675 254.728 205.571C254.728 204.803 254.98 204.239 255.484 203.879C256.012 203.495 256.636 203.303 257.356 203.303C257.932 203.303 258.352 203.399 258.616 203.591C258.904 203.783 259.156 203.975 259.372 204.167C259.588 204.359 259.852 204.455 260.164 204.455C260.668 204.455 260.92 204.275 260.92 203.915C260.92 203.435 260.632 203.087 260.056 202.871C259.504 202.655 258.808 202.355 257.968 201.971C256.816 201.419 255.988 200.783 255.484 200.063C254.98 199.319 254.728 198.563 254.728 197.795C254.728 196.883 255.052 196.019 255.7 195.203C256.348 194.387 257.26 193.715 258.436 193.187C259.636 192.659 261.064 192.395 262.72 192.395C264.112 192.395 265.36 192.587 266.464 192.971C267.568 193.355 268.444 193.883 269.092 194.555C269.74 195.203 270.064 195.923 270.064 196.715C270.064 197.459 269.824 198.023 269.344 198.407C268.864 198.791 268.24 198.983 267.472 198.983C267.04 198.983 266.692 198.923 266.428 198.803C266.188 198.659 265.96 198.527 265.744 198.407C265.552 198.287 265.276 198.227 264.916 198.227C264.724 198.227 264.556 198.299 264.412 198.443C264.268 198.563 264.196 198.719 264.196 198.911C264.196 199.055 264.256 199.199 264.376 199.343C264.496 199.487 264.7 199.607 264.988 199.703C265.732 199.943 266.452 200.255 267.148 200.639C267.868 200.999 268.456 201.479 268.912 202.079C269.392 202.655 269.632 203.399 269.632 204.311C269.632 205.871 268.9 207.095 267.436 207.983C265.972 208.871 264.04 209.315 261.64 209.315ZM290.994 209.315C289.314 209.315 287.85 208.979 286.602 208.307C285.354 207.635 284.382 206.759 283.686 205.679C282.99 204.575 282.642 203.399 282.642 202.151C282.642 200.879 282.99 199.931 283.686 199.307C284.382 198.683 285.138 198.371 285.954 198.371C286.794 198.371 287.418 198.539 287.826 198.875C288.234 199.187 288.534 199.559 288.726 199.991C288.942 200.399 289.17 200.771 289.41 201.107C289.674 201.419 290.07 201.575 290.598 201.575C291.558 201.575 292.11 200.999 292.254 199.847C292.422 198.695 292.494 197.027 292.47 194.843C292.47 194.027 292.47 193.295 292.47 192.647C291.222 192.599 290.082 192.443 289.05 192.179C288.018 191.915 287.202 191.495 286.602 190.919C286.002 190.319 285.702 189.479 285.702 188.399C285.702 187.391 285.966 186.599 286.494 186.023C287.046 185.423 287.79 184.991 288.726 184.727C289.662 184.463 290.718 184.295 291.894 184.223C293.07 184.151 294.282 184.115 295.53 184.115C296.802 184.115 298.014 184.151 299.166 184.223C300.342 184.295 301.386 184.463 302.298 184.727C303.234 184.991 303.966 185.423 304.494 186.023C305.046 186.599 305.322 187.391 305.322 188.399C305.322 189.695 304.89 190.643 304.026 191.243C303.162 191.843 302.058 192.251 300.714 192.467C300.762 193.091 300.786 193.787 300.786 194.555C300.81 195.323 300.822 196.163 300.822 197.075C300.822 201.107 300.018 204.155 298.41 206.219C296.826 208.283 294.354 209.315 290.994 209.315ZM311.85 209.315C310.074 209.315 308.526 208.883 307.206 208.019C305.91 207.131 304.902 205.907 304.182 204.347C303.486 202.763 303.138 200.939 303.138 198.875C303.138 196.859 303.45 195.275 304.074 194.123C304.722 192.971 305.634 192.395 306.81 192.395C307.65 192.395 308.286 192.551 308.718 192.863C309.174 193.175 309.474 193.571 309.618 194.051C309.786 194.507 309.87 194.999 309.87 195.527C309.87 196.199 309.822 196.883 309.726 197.579C309.654 198.275 309.618 199.019 309.618 199.811C309.618 200.939 309.846 201.767 310.302 202.295C310.782 202.799 311.298 203.051 311.85 203.051C312.45 203.051 312.966 202.799 313.398 202.295C313.854 201.767 314.082 200.939 314.082 199.811C314.082 199.019 314.046 198.311 313.974 197.687C313.902 197.063 313.866 196.355 313.866 195.563C313.866 194.723 314.07 193.991 314.478 193.367C314.886 192.719 315.702 192.395 316.926 192.395C318.102 192.395 319.002 192.971 319.626 194.123C320.25 195.275 320.562 196.859 320.562 198.875C320.562 200.939 320.238 202.763 319.59 204.347C318.942 205.907 317.97 207.131 316.674 208.019C315.402 208.883 313.794 209.315 311.85 209.315ZM328.251 209.315C327.075 209.315 325.995 209.135 325.011 208.775C324.051 208.415 323.283 207.875 322.707 207.155C322.131 206.411 321.843 205.475 321.843 204.347C321.843 203.387 322.131 202.571 322.707 201.899C323.283 201.227 324.051 200.711 325.011 200.351C325.995 199.991 327.075 199.811 328.251 199.811C328.947 199.811 329.583 199.871 330.159 199.991C330.735 200.087 331.131 200.207 331.347 200.351C331.347 199.799 331.119 199.319 330.663 198.911C330.207 198.479 329.415 198.263 328.287 198.263C327.759 198.263 327.339 198.311 327.027 198.407C326.739 198.479 326.475 198.575 326.235 198.695C325.995 198.815 325.719 198.923 325.407 199.019C325.119 199.091 324.723 199.127 324.219 199.127C323.475 199.127 322.875 198.935 322.419 198.551C321.987 198.143 321.771 197.531 321.771 196.715C321.771 195.971 321.975 195.335 322.383 194.807C322.815 194.255 323.367 193.799 324.039 193.439C324.711 193.079 325.431 192.815 326.199 192.647C326.991 192.479 327.747 192.395 328.467 192.395C330.603 192.395 332.343 192.791 333.687 193.583C335.031 194.351 336.027 195.359 336.675 196.607C337.323 197.855 337.647 199.211 337.647 200.675C337.647 201.491 337.575 202.247 337.431 202.943C337.311 203.639 337.143 204.179 336.927 204.563C337.263 204.851 337.515 205.187 337.683 205.571C337.875 205.955 337.971 206.351 337.971 206.759C337.971 207.431 337.743 208.031 337.287 208.559C336.855 209.063 336.231 209.315 335.415 209.315C334.791 209.315 334.299 209.219 333.939 209.027C333.579 208.835 333.219 208.583 332.859 208.271C332.283 208.607 331.647 208.871 330.951 209.063C330.255 209.231 329.355 209.315 328.251 209.315ZM328.971 205.679C329.523 205.679 329.931 205.571 330.195 205.355C330.483 205.115 330.627 204.851 330.627 204.563C330.627 204.275 330.483 204.023 330.195 203.807C329.931 203.567 329.523 203.447 328.971 203.447C328.443 203.447 328.035 203.567 327.747 203.807C327.459 204.023 327.315 204.275 327.315 204.563C327.315 204.851 327.459 205.115 327.747 205.355C328.035 205.571 328.443 205.679 328.971 205.679ZM343.272 209.315C342.456 209.315 341.784 209.051 341.256 208.523C340.752 207.971 340.368 207.239 340.104 206.327C339.84 205.415 339.66 204.371 339.564 203.195C339.468 202.019 339.42 200.807 339.42 199.559C339.42 198.719 339.432 197.867 339.456 197.003C339.504 196.115 339.624 195.299 339.816 194.555C340.032 193.811 340.38 193.211 340.86 192.755C341.364 192.275 342.072 192.035 342.984 192.035C343.632 192.035 344.22 192.191 344.748 192.503C345.276 192.791 345.612 193.235 345.756 193.835C346.308 193.331 347.004 192.971 347.844 192.755C348.708 192.515 349.596 192.395 350.508 192.395C351.276 192.395 352.056 192.587 352.848 192.971C353.64 193.331 354.312 193.835 354.864 194.483C355.416 195.131 355.692 195.863 355.692 196.679C355.692 197.375 355.428 198.035 354.9 198.659C354.396 199.283 353.676 199.595 352.74 199.595C352.332 199.595 351.996 199.547 351.732 199.451C351.468 199.331 351.216 199.223 350.976 199.127C350.736 199.031 350.448 198.983 350.112 198.983C349.224 198.983 348.408 199.343 347.664 200.063C346.944 200.759 346.584 201.707 346.584 202.907C346.584 203.531 346.56 204.215 346.512 204.959C346.488 205.679 346.38 206.375 346.188 207.047C346.02 207.719 345.708 208.271 345.252 208.703C344.796 209.111 344.136 209.315 343.272 209.315ZM364.733 209.315C362.933 209.315 361.349 208.967 359.981 208.271C358.637 207.551 357.581 206.579 356.813 205.355C356.069 204.107 355.697 202.679 355.697 201.071C355.697 199.511 356.069 198.071 356.813 196.751C357.581 195.431 358.625 194.375 359.945 193.583C361.289 192.791 362.825 192.395 364.553 192.395C366.161 192.395 367.541 192.719 368.693 193.367C369.845 194.015 370.721 194.843 371.321 195.851C371.945 196.835 372.257 197.879 372.257 198.983C372.257 200.087 372.005 200.999 371.501 201.719C370.997 202.415 370.337 202.955 369.521 203.339C368.729 203.699 367.877 203.939 366.965 204.059C366.053 204.179 365.177 204.203 364.337 204.131C363.497 204.035 362.789 203.891 362.213 203.699C362.645 204.395 363.185 204.875 363.833 205.139C364.505 205.379 365.201 205.487 365.921 205.463C366.665 205.415 367.337 205.331 367.937 205.211C368.681 205.043 369.293 205.079 369.773 205.319C370.253 205.559 370.505 205.943 370.529 206.471C370.553 206.903 370.397 207.335 370.061 207.767C369.749 208.199 369.173 208.571 368.333 208.883C367.493 209.171 366.293 209.315 364.733 209.315ZM362.321 199.307C362.561 199.691 362.909 199.967 363.365 200.135C363.821 200.279 364.277 200.327 364.733 200.279C365.213 200.231 365.609 200.099 365.921 199.883C366.257 199.667 366.425 199.367 366.425 198.983C366.425 198.575 366.257 198.215 365.921 197.903C365.609 197.567 365.105 197.399 364.409 197.399C363.737 197.399 363.221 197.615 362.861 198.047C362.501 198.455 362.321 198.875 362.321 199.307ZM380.951 209.279C379.391 209.279 378.059 209.195 376.955 209.027C375.851 208.859 374.999 208.499 374.399 207.947C373.823 207.371 373.535 206.495 373.535 205.319C373.535 204.599 373.799 203.903 374.327 203.231C374.879 202.535 375.611 201.839 376.523 201.143C377.435 200.423 378.455 199.667 379.583 198.875C378.191 198.875 377.003 198.839 376.019 198.767C375.035 198.671 374.279 198.407 373.751 197.975C373.223 197.519 372.959 196.775 372.959 195.743C372.959 194.471 373.631 193.595 374.975 193.115C376.319 192.635 378.215 192.395 380.663 192.395C382.319 192.395 383.735 192.515 384.911 192.755C386.087 192.971 386.975 193.391 387.575 194.015C388.199 194.639 388.511 195.539 388.511 196.715C388.511 197.675 388.211 198.587 387.611 199.451C387.011 200.315 386.255 201.095 385.343 201.791C384.431 202.463 383.507 203.039 382.571 203.519C383.699 203.519 384.695 203.567 385.559 203.663C386.447 203.759 387.131 203.999 387.611 204.383C388.115 204.767 388.367 205.379 388.367 206.219C388.367 207.107 388.067 207.767 387.467 208.199C386.867 208.631 386.015 208.919 384.911 209.063C383.807 209.207 382.487 209.279 380.951 209.279Z" fill="#6D73FA"/>
<path d="M456.02 209.243C455.108 209.243 454.376 208.919 453.824 208.271C453.272 207.623 452.852 206.735 452.564 205.607C452.3 204.455 452.12 203.123 452.024 201.611C450.56 201.491 449.42 201.203 448.604 200.747C447.812 200.291 447.416 199.499 447.416 198.371C447.416 197.243 447.812 196.451 448.604 195.995C449.42 195.515 450.56 195.203 452.024 195.059C452.144 192.923 452.468 191.027 452.996 189.371C453.548 187.715 454.436 186.431 455.66 185.519C456.884 184.583 458.6 184.115 460.808 184.115C462.032 184.115 463.1 184.403 464.012 184.979C464.948 185.555 465.416 186.455 465.416 187.679C465.416 188.951 465.008 189.887 464.192 190.487C463.4 191.063 462.44 191.459 461.312 191.675C460.424 191.843 459.8 192.239 459.44 192.863C459.08 193.463 458.852 194.171 458.756 194.987C460.916 195.035 462.56 195.263 463.688 195.671C464.84 196.079 465.416 196.979 465.416 198.371C465.416 199.283 465.152 199.979 464.624 200.459C464.096 200.915 463.328 201.227 462.32 201.395C461.336 201.563 460.172 201.659 458.828 201.683C458.828 202.643 458.84 203.519 458.864 204.311C458.888 205.079 458.9 205.787 458.9 206.435C458.9 207.203 458.744 207.791 458.432 208.199C458.12 208.607 457.736 208.883 457.28 209.027C456.848 209.171 456.428 209.243 456.02 209.243ZM470.182 209.315C469.366 209.315 468.694 209.051 468.166 208.523C467.662 207.971 467.278 207.239 467.014 206.327C466.75 205.415 466.57 204.371 466.474 203.195C466.378 202.019 466.33 200.807 466.33 199.559C466.33 198.719 466.342 197.867 466.366 197.003C466.414 196.115 466.534 195.299 466.726 194.555C466.942 193.811 467.29 193.211 467.77 192.755C468.274 192.275 468.982 192.035 469.894 192.035C470.542 192.035 471.13 192.191 471.658 192.503C472.186 192.791 472.522 193.235 472.666 193.835C473.218 193.331 473.914 192.971 474.754 192.755C475.618 192.515 476.506 192.395 477.418 192.395C478.186 192.395 478.966 192.587 479.758 192.971C480.55 193.331 481.222 193.835 481.774 194.483C482.326 195.131 482.602 195.863 482.602 196.679C482.602 197.375 482.338 198.035 481.81 198.659C481.306 199.283 480.586 199.595 479.65 199.595C479.242 199.595 478.906 199.547 478.642 199.451C478.378 199.331 478.126 199.223 477.886 199.127C477.646 199.031 477.358 198.983 477.022 198.983C476.134 198.983 475.318 199.343 474.574 200.063C473.854 200.759 473.494 201.707 473.494 202.907C473.494 203.531 473.47 204.215 473.422 204.959C473.398 205.679 473.29 206.375 473.098 207.047C472.93 207.719 472.618 208.271 472.162 208.703C471.706 209.111 471.046 209.315 470.182 209.315ZM491.607 209.351C489.831 209.375 488.271 209.015 486.927 208.271C485.607 207.503 484.563 206.471 483.795 205.175C483.051 203.855 482.655 202.403 482.607 200.819C482.583 199.187 482.955 197.747 483.723 196.499C484.491 195.227 485.559 194.219 486.927 193.475C488.295 192.731 489.855 192.359 491.607 192.359C493.335 192.335 494.859 192.695 496.179 193.439C497.523 194.183 498.591 195.191 499.383 196.463C500.175 197.735 500.595 199.187 500.643 200.819C500.667 202.379 500.295 203.807 499.527 205.103C498.759 206.375 497.691 207.395 496.323 208.163C494.955 208.907 493.383 209.303 491.607 209.351ZM491.715 204.095C492.363 204.095 492.927 203.843 493.407 203.339C493.887 202.835 494.127 202.247 494.127 201.575C494.127 200.903 493.887 200.327 493.407 199.847C492.927 199.343 492.363 199.091 491.715 199.091C491.067 199.091 490.503 199.343 490.023 199.847C489.543 200.327 489.303 200.903 489.303 201.575C489.303 202.247 489.543 202.835 490.023 203.339C490.503 203.843 491.067 204.095 491.715 204.095ZM515.952 209.315C514.992 209.315 514.308 209.051 513.9 208.523C513.516 207.971 513.288 207.287 513.216 206.471C513.144 205.631 513.108 204.791 513.108 203.951C513.108 202.679 512.928 201.659 512.568 200.891C512.208 200.099 511.572 199.703 510.66 199.703C509.844 199.703 509.244 200.099 508.86 200.891C508.476 201.659 508.284 202.679 508.284 203.951C508.284 204.791 508.248 205.619 508.176 206.435C508.128 207.251 507.912 207.935 507.528 208.487C507.144 209.015 506.448 209.279 505.44 209.279C504.696 209.279 504.072 209.003 503.568 208.451C503.088 207.899 502.716 207.179 502.452 206.291C502.188 205.403 501.996 204.443 501.876 203.411C501.78 202.379 501.732 201.383 501.732 200.423C501.732 199.463 501.78 198.479 501.876 197.471C501.972 196.463 502.14 195.527 502.38 194.663C502.644 193.799 503.016 193.103 503.496 192.575C503.976 192.047 504.6 191.783 505.368 191.783C506.736 191.783 507.588 192.407 507.924 193.655C508.212 193.343 508.668 193.055 509.292 192.791C509.94 192.503 510.672 192.359 511.488 192.359C513.336 192.359 514.848 192.827 516.024 193.763C517.2 194.699 518.052 195.995 518.58 197.651C519.132 199.283 519.396 201.179 519.372 203.339C519.372 204.443 519.264 205.451 519.048 206.363C518.856 207.251 518.508 207.971 518.004 208.523C517.524 209.051 516.84 209.315 515.952 209.315ZM530.964 209.315C530.124 209.315 529.272 209.147 528.408 208.811C527.544 208.475 526.764 207.983 526.068 207.335C525.396 206.687 524.904 205.907 524.592 204.995C524.376 204.395 524.22 203.651 524.124 202.763C524.028 201.875 523.956 200.927 523.908 199.919C523.884 198.911 523.872 197.927 523.872 196.967C522.936 196.943 522.036 196.859 521.172 196.715C520.332 196.571 519.636 196.307 519.084 195.923C518.556 195.515 518.292 194.927 518.292 194.159C518.292 193.223 518.544 192.527 519.048 192.071C519.552 191.591 520.224 191.279 521.064 191.135C521.928 190.967 522.864 190.871 523.872 190.847C523.896 190.103 523.956 189.347 524.052 188.579C524.172 187.787 524.364 187.055 524.628 186.383C524.892 185.711 525.264 185.171 525.744 184.763C526.224 184.331 526.848 184.115 527.616 184.115C528.648 184.115 529.392 184.439 529.848 185.087C530.328 185.735 530.628 186.575 530.748 187.607C530.868 188.639 530.916 189.719 530.892 190.847C532.14 190.823 533.244 190.871 534.204 190.991C535.164 191.111 535.92 191.375 536.472 191.783C537.024 192.191 537.3 192.839 537.3 193.727C537.3 194.639 536.988 195.323 536.364 195.779C535.74 196.235 534.924 196.547 533.916 196.715C532.908 196.859 531.84 196.943 530.712 196.967C530.712 197.423 530.7 197.903 530.676 198.407C530.676 198.887 530.676 199.379 530.676 199.883C530.676 201.251 530.772 202.223 530.964 202.799C531.108 203.231 531.3 203.507 531.54 203.627C531.804 203.747 532.128 203.819 532.512 203.843C532.896 203.843 533.364 203.915 533.916 204.059C534.468 204.179 534.9 204.479 535.212 204.959C535.524 205.415 535.68 206.003 535.68 206.723C535.68 207.539 535.248 208.175 534.384 208.631C533.544 209.087 532.404 209.315 530.964 209.315ZM546.231 202.691C545.511 202.691 544.755 202.679 543.963 202.655C543.195 202.631 542.487 202.547 541.839 202.403C541.191 202.259 540.663 202.007 540.255 201.647C539.847 201.263 539.643 200.711 539.643 199.991C539.643 199.271 539.847 198.731 540.255 198.371C540.663 197.987 541.191 197.723 541.839 197.579C542.487 197.411 543.195 197.315 543.963 197.291C544.755 197.267 545.511 197.255 546.231 197.255C546.975 197.255 547.731 197.267 548.499 197.291C549.267 197.315 549.975 197.411 550.623 197.579C551.295 197.723 551.835 197.987 552.243 198.371C552.651 198.731 552.855 199.271 552.855 199.991C552.855 200.711 552.651 201.263 552.243 201.647C551.835 202.007 551.295 202.259 550.623 202.403C549.975 202.547 549.267 202.631 548.499 202.655C547.731 202.679 546.975 202.691 546.231 202.691ZM564.241 209.315C562.441 209.315 560.857 208.967 559.489 208.271C558.145 207.551 557.089 206.579 556.321 205.355C555.577 204.107 555.205 202.679 555.205 201.071C555.205 199.511 555.577 198.071 556.321 196.751C557.089 195.431 558.133 194.375 559.453 193.583C560.797 192.791 562.333 192.395 564.061 192.395C565.669 192.395 567.049 192.719 568.201 193.367C569.353 194.015 570.229 194.843 570.829 195.851C571.453 196.835 571.765 197.879 571.765 198.983C571.765 200.087 571.513 200.999 571.009 201.719C570.505 202.415 569.845 202.955 569.029 203.339C568.237 203.699 567.385 203.939 566.473 204.059C565.561 204.179 564.685 204.203 563.845 204.131C563.005 204.035 562.297 203.891 561.721 203.699C562.153 204.395 562.693 204.875 563.341 205.139C564.013 205.379 564.709 205.487 565.429 205.463C566.173 205.415 566.845 205.331 567.445 205.211C568.189 205.043 568.801 205.079 569.281 205.319C569.761 205.559 570.013 205.943 570.037 206.471C570.061 206.903 569.905 207.335 569.569 207.767C569.257 208.199 568.681 208.571 567.841 208.883C567.001 209.171 565.801 209.315 564.241 209.315ZM561.829 199.307C562.069 199.691 562.417 199.967 562.873 200.135C563.329 200.279 563.785 200.327 564.241 200.279C564.721 200.231 565.117 200.099 565.429 199.883C565.765 199.667 565.933 199.367 565.933 198.983C565.933 198.575 565.765 198.215 565.429 197.903C565.117 197.567 564.613 197.399 563.917 197.399C563.245 197.399 562.729 197.615 562.369 198.047C562.009 198.455 561.829 198.875 561.829 199.307ZM587.073 209.315C586.113 209.315 585.429 209.051 585.021 208.523C584.637 207.971 584.409 207.287 584.337 206.471C584.265 205.631 584.229 204.791 584.229 203.951C584.229 202.679 584.049 201.659 583.689 200.891C583.329 200.099 582.693 199.703 581.781 199.703C580.965 199.703 580.365 200.099 579.981 200.891C579.597 201.659 579.405 202.679 579.405 203.951C579.405 204.791 579.369 205.619 579.297 206.435C579.249 207.251 579.033 207.935 578.649 208.487C578.265 209.015 577.569 209.279 576.561 209.279C575.817 209.279 575.193 209.003 574.689 208.451C574.209 207.899 573.837 207.179 573.573 206.291C573.309 205.403 573.117 204.443 572.997 203.411C572.901 202.379 572.853 201.383 572.853 200.423C572.853 199.463 572.901 198.479 572.997 197.471C573.093 196.463 573.261 195.527 573.501 194.663C573.765 193.799 574.137 193.103 574.617 192.575C575.097 192.047 575.721 191.783 576.489 191.783C577.857 191.783 578.709 192.407 579.045 193.655C579.333 193.343 579.789 193.055 580.413 192.791C581.061 192.503 581.793 192.359 582.609 192.359C584.457 192.359 585.969 192.827 587.145 193.763C588.321 194.699 589.173 195.995 589.701 197.651C590.253 199.283 590.517 201.179 590.493 203.339C590.493 204.443 590.385 205.451 590.169 206.363C589.977 207.251 589.629 207.971 589.125 208.523C588.645 209.051 587.961 209.315 587.073 209.315ZM600.16 209.315C598.384 209.315 596.848 208.895 595.552 208.055C594.28 207.215 593.296 206.123 592.6 204.779C591.928 203.435 591.592 202.031 591.592 200.567C591.592 198.695 591.964 197.159 592.708 195.959C593.476 194.759 594.448 193.871 595.624 193.295C596.8 192.695 598.024 192.395 599.296 192.395C599.896 192.395 600.508 192.467 601.132 192.611C601.756 192.731 602.344 192.947 602.896 193.259C602.8 192.227 602.584 191.219 602.248 190.235C601.936 189.227 601.78 188.207 601.78 187.175C601.78 186.119 602.104 185.339 602.752 184.835C603.4 184.331 604.096 184.079 604.84 184.079C605.704 184.079 606.448 184.355 607.072 184.907C607.696 185.459 608.224 186.191 608.656 187.103C609.112 188.015 609.472 189.047 609.736 190.199C610 191.327 610.192 192.491 610.312 193.691C610.432 194.891 610.492 196.043 610.492 197.147C610.492 197.507 610.468 198.059 610.42 198.803C610.396 199.547 610.288 200.375 610.096 201.287C609.904 202.199 609.592 203.123 609.16 204.059C608.752 204.995 608.164 205.859 607.396 206.651C606.652 207.443 605.692 208.091 604.516 208.595C603.34 209.075 601.888 209.315 600.16 209.315ZM600.376 203.627C601.024 203.627 601.588 203.387 602.068 202.907C602.548 202.403 602.788 201.815 602.788 201.143C602.788 200.471 602.548 199.883 602.068 199.379C601.588 198.875 601.024 198.623 600.376 198.623C599.728 198.623 599.152 198.875 598.648 199.379C598.168 199.883 597.928 200.471 597.928 201.143C597.928 201.815 598.168 202.403 598.648 202.907C599.152 203.387 599.728 203.627 600.376 203.627ZM625.756 197.867C626.26 195.995 626.74 194.183 627.196 192.431C627.676 190.679 628.18 189.107 628.708 187.715C629.236 186.323 629.812 185.219 630.436 184.403C631.06 183.587 631.768 183.179 632.56 183.179C633.496 183.179 634.156 183.515 634.54 184.187C634.924 184.859 635.116 185.591 635.116 186.383C635.116 186.983 635.02 187.799 634.828 188.831C634.66 189.863 634.372 191.243 633.964 192.971C633.556 194.699 632.992 196.907 632.272 199.595C631.336 203.123 630.544 205.967 629.896 208.127C629.248 210.263 628.612 211.811 627.988 212.771C627.364 213.755 626.62 214.247 625.756 214.247C625.348 214.247 624.94 214.151 624.532 213.959C624.124 213.791 623.776 213.467 623.488 212.987C623.224 212.531 623.092 211.859 623.092 210.971C623.092 209.723 623.32 208.031 623.776 205.895C624.256 203.759 624.916 201.083 625.756 197.867ZM656.269 209.315C654.493 209.315 652.957 208.895 651.661 208.055C650.389 207.215 649.405 206.123 648.709 204.779C648.037 203.435 647.701 202.031 647.701 200.567C647.701 198.695 648.073 197.159 648.817 195.959C649.585 194.759 650.557 193.871 651.733 193.295C652.909 192.695 654.133 192.395 655.405 192.395C656.005 192.395 656.617 192.467 657.241 192.611C657.865 192.731 658.453 192.947 659.005 193.259C658.909 192.227 658.693 191.219 658.357 190.235C658.045 189.227 657.889 188.207 657.889 187.175C657.889 186.119 658.213 185.339 658.861 184.835C659.509 184.331 660.205 184.079 660.949 184.079C661.813 184.079 662.557 184.355 663.181 184.907C663.805 185.459 664.333 186.191 664.765 187.103C665.221 188.015 665.581 189.047 665.845 190.199C666.109 191.327 666.301 192.491 666.421 193.691C666.541 194.891 666.601 196.043 666.601 197.147C666.601 197.507 666.577 198.059 666.529 198.803C666.505 199.547 666.397 200.375 666.205 201.287C666.013 202.199 665.701 203.123 665.269 204.059C664.861 204.995 664.273 205.859 663.505 206.651C662.761 207.443 661.801 208.091 660.625 208.595C659.449 209.075 657.997 209.315 656.269 209.315ZM656.485 203.627C657.133 203.627 657.697 203.387 658.177 202.907C658.657 202.403 658.897 201.815 658.897 201.143C658.897 200.471 658.657 199.883 658.177 199.379C657.697 198.875 657.133 198.623 656.485 198.623C655.837 198.623 655.261 198.875 654.757 199.379C654.277 199.883 654.037 200.471 654.037 201.143C654.037 201.815 654.277 202.403 654.757 202.907C655.261 203.387 655.837 203.627 656.485 203.627ZM671.917 191.855C670.741 191.855 669.745 191.435 668.929 190.595C668.113 189.731 667.705 188.687 667.705 187.463C667.705 186.647 667.885 185.915 668.245 185.267C668.629 184.619 669.133 184.103 669.757 183.719C670.405 183.311 671.125 183.107 671.917 183.107C672.685 183.107 673.381 183.311 674.005 183.719C674.653 184.103 675.169 184.619 675.553 185.267C675.937 185.915 676.129 186.647 676.129 187.463C676.129 188.279 675.937 189.023 675.553 189.695C675.169 190.343 674.653 190.871 674.005 191.279C673.381 191.663 672.685 191.855 671.917 191.855ZM671.917 209.315C670.957 209.315 670.237 209.039 669.757 208.487C669.301 207.935 668.989 207.095 668.821 205.967C668.677 204.815 668.593 203.339 668.569 201.539C668.569 199.739 668.641 198.263 668.785 197.111C668.953 195.959 669.277 195.119 669.757 194.591C670.237 194.039 670.957 193.763 671.917 193.763C672.877 193.763 673.585 194.039 674.041 194.591C674.521 195.119 674.845 195.959 675.013 197.111C675.181 198.263 675.265 199.739 675.265 201.539C675.289 203.339 675.217 204.815 675.049 205.967C674.881 207.095 674.557 207.935 674.077 208.487C673.597 209.039 672.877 209.315 671.917 209.315ZM684.144 209.315C682.032 209.315 680.352 208.967 679.104 208.271C677.856 207.575 677.232 206.675 677.232 205.571C677.232 204.803 677.484 204.239 677.988 203.879C678.516 203.495 679.14 203.303 679.86 203.303C680.436 203.303 680.856 203.399 681.12 203.591C681.408 203.783 681.66 203.975 681.876 204.167C682.092 204.359 682.356 204.455 682.668 204.455C683.172 204.455 683.424 204.275 683.424 203.915C683.424 203.435 683.136 203.087 682.56 202.871C682.008 202.655 681.312 202.355 680.472 201.971C679.32 201.419 678.492 200.783 677.988 200.063C677.484 199.319 677.232 198.563 677.232 197.795C677.232 196.883 677.556 196.019 678.204 195.203C678.852 194.387 679.764 193.715 680.94 193.187C682.14 192.659 683.568 192.395 685.224 192.395C686.616 192.395 687.864 192.587 688.968 192.971C690.072 193.355 690.948 193.883 691.596 194.555C692.244 195.203 692.568 195.923 692.568 196.715C692.568 197.459 692.328 198.023 691.848 198.407C691.368 198.791 690.744 198.983 689.976 198.983C689.544 198.983 689.196 198.923 688.932 198.803C688.692 198.659 688.464 198.527 688.248 198.407C688.056 198.287 687.78 198.227 687.42 198.227C687.228 198.227 687.06 198.299 686.916 198.443C686.772 198.563 686.7 198.719 686.7 198.911C686.7 199.055 686.76 199.199 686.88 199.343C687 199.487 687.204 199.607 687.492 199.703C688.236 199.943 688.956 200.255 689.652 200.639C690.372 200.999 690.96 201.479 691.416 202.079C691.896 202.655 692.136 203.399 692.136 204.311C692.136 205.871 691.404 207.095 689.94 207.983C688.476 208.871 686.544 209.315 684.144 209.315ZM702.686 209.315C700.886 209.315 699.302 208.967 697.934 208.271C696.59 207.551 695.534 206.579 694.766 205.355C694.022 204.107 693.65 202.679 693.65 201.071C693.65 199.511 694.022 198.071 694.766 196.751C695.534 195.431 696.578 194.375 697.898 193.583C699.242 192.791 700.778 192.395 702.506 192.395C704.114 192.395 705.494 192.719 706.646 193.367C707.798 194.015 708.674 194.843 709.274 195.851C709.898 196.835 710.21 197.879 710.21 198.983C710.21 200.087 709.958 200.999 709.454 201.719C708.95 202.415 708.29 202.955 707.474 203.339C706.682 203.699 705.83 203.939 704.918 204.059C704.006 204.179 703.13 204.203 702.29 204.131C701.45 204.035 700.742 203.891 700.166 203.699C700.598 204.395 701.138 204.875 701.786 205.139C702.458 205.379 703.154 205.487 703.874 205.463C704.618 205.415 705.29 205.331 705.89 205.211C706.634 205.043 707.246 205.079 707.726 205.319C708.206 205.559 708.458 205.943 708.482 206.471C708.506 206.903 708.35 207.335 708.014 207.767C707.702 208.199 707.126 208.571 706.286 208.883C705.446 209.171 704.246 209.315 702.686 209.315ZM700.274 199.307C700.514 199.691 700.862 199.967 701.318 200.135C701.774 200.279 702.23 200.327 702.686 200.279C703.166 200.231 703.562 200.099 703.874 199.883C704.21 199.667 704.378 199.367 704.378 198.983C704.378 198.575 704.21 198.215 703.874 197.903C703.562 197.567 703.058 197.399 702.362 197.399C701.69 197.399 701.174 197.615 700.814 198.047C700.454 198.455 700.274 198.875 700.274 199.307ZM726.222 209.315C725.262 209.315 724.578 209.051 724.17 208.523C723.786 207.971 723.558 207.287 723.486 206.471C723.414 205.631 723.378 204.791 723.378 203.951C723.378 202.679 723.198 201.659 722.838 200.891C722.478 200.099 721.842 199.703 720.93 199.703C720.114 199.703 719.514 200.099 719.13 200.891C718.746 201.659 718.554 202.679 718.554 203.951C718.554 204.791 718.518 205.619 718.446 206.435C718.398 207.251 718.182 207.935 717.798 208.487C717.414 209.015 716.718 209.279 715.71 209.279C714.966 209.279 714.342 209.003 713.838 208.451C713.358 207.899 712.986 207.179 712.722 206.291C712.458 205.403 712.266 204.443 712.146 203.411C712.05 202.379 712.002 201.383 712.002 200.423C712.002 199.463 712.05 198.479 712.146 197.471C712.242 196.463 712.41 195.527 712.65 194.663C712.914 193.799 713.286 193.103 713.766 192.575C714.246 192.047 714.87 191.783 715.638 191.783C717.006 191.783 717.858 192.407 718.194 193.655C718.482 193.343 718.938 193.055 719.562 192.791C720.21 192.503 720.942 192.359 721.758 192.359C723.606 192.359 725.118 192.827 726.294 193.763C727.47 194.699 728.322 195.995 728.85 197.651C729.402 199.283 729.666 201.179 729.642 203.339C729.642 204.443 729.534 205.451 729.318 206.363C729.126 207.251 728.778 207.971 728.274 208.523C727.794 209.051 727.11 209.315 726.222 209.315ZM716.322 190.595C715.698 190.595 715.158 190.403 714.702 190.019C714.27 189.635 714.054 189.071 714.054 188.327C714.054 187.799 714.234 187.283 714.594 186.779C714.978 186.275 715.47 185.855 716.07 185.519C716.694 185.159 717.366 184.979 718.086 184.979C719.022 184.979 719.706 185.075 720.138 185.267C720.594 185.459 720.954 185.663 721.218 185.879C721.506 186.071 721.866 186.167 722.298 186.167C722.874 186.167 723.282 186.071 723.522 185.879C723.786 185.687 724.026 185.507 724.242 185.339C724.482 185.147 724.854 185.051 725.358 185.051C725.982 185.051 726.51 185.243 726.942 185.627C727.398 186.011 727.626 186.575 727.626 187.319C727.626 187.823 727.434 188.339 727.05 188.867C726.69 189.371 726.21 189.803 725.61 190.163C725.01 190.499 724.338 190.667 723.594 190.667C722.682 190.667 721.998 190.571 721.542 190.379C721.086 190.187 720.714 189.995 720.426 189.803C720.162 189.611 719.814 189.515 719.382 189.515C718.806 189.515 718.386 189.611 718.122 189.803C717.882 189.971 717.654 190.151 717.438 190.343C717.222 190.511 716.85 190.595 716.322 190.595ZM740.443 209.351C738.667 209.375 737.107 209.015 735.763 208.271C734.443 207.503 733.399 206.471 732.631 205.175C731.887 203.855 731.491 202.403 731.443 200.819C731.419 199.187 731.791 197.747 732.559 196.499C733.327 195.227 734.395 194.219 735.763 193.475C737.131 192.731 738.691 192.359 740.443 192.359C742.171 192.335 743.695 192.695 745.015 193.439C746.359 194.183 747.427 195.191 748.219 196.463C749.011 197.735 749.431 199.187 749.479 200.819C749.503 202.379 749.131 203.807 748.363 205.103C747.595 206.375 746.527 207.395 745.159 208.163C743.791 208.907 742.219 209.303 740.443 209.351ZM740.551 204.095C741.199 204.095 741.763 203.843 742.243 203.339C742.723 202.835 742.963 202.247 742.963 201.575C742.963 200.903 742.723 200.327 742.243 199.847C741.763 199.343 741.199 199.091 740.551 199.091C739.903 199.091 739.339 199.343 738.859 199.847C738.379 200.327 738.139 200.903 738.139 201.575C738.139 202.247 738.379 202.835 738.859 203.339C739.339 203.843 739.903 204.095 740.551 204.095ZM769.912 215.471C768.568 215.471 767.44 215.207 766.528 214.679C765.616 214.175 765.16 213.479 765.16 212.591C765.16 211.679 765.556 210.971 766.348 210.467C767.14 209.963 768.1 209.807 769.228 209.999C770.548 210.191 771.724 210.107 772.756 209.747C773.812 209.411 774.436 208.895 774.628 208.199C774.244 208.415 773.716 208.595 773.044 208.739C772.372 208.883 771.616 208.955 770.776 208.955C769.144 208.955 767.764 208.715 766.636 208.235C765.532 207.731 764.644 207.095 763.972 206.327C763.3 205.535 762.808 204.707 762.496 203.843C762.208 202.955 762.064 202.139 762.064 201.395C762.064 199.427 762.484 197.771 763.324 196.427C764.188 195.083 765.28 194.063 766.6 193.367C767.92 192.671 769.276 192.323 770.668 192.323C771.124 192.323 771.664 192.359 772.288 192.431C772.936 192.479 773.488 192.563 773.944 192.683C774.136 192.083 774.448 191.591 774.88 191.207C775.336 190.823 776.056 190.631 777.04 190.631C777.904 190.631 778.624 190.931 779.2 191.531C779.776 192.107 780.232 192.899 780.568 193.907C780.904 194.891 781.144 195.995 781.288 197.219C781.432 198.419 781.492 199.667 781.468 200.963C781.468 202.235 781.408 203.435 781.288 204.563C781.048 206.795 780.436 208.727 779.452 210.359C778.468 211.991 777.16 213.251 775.528 214.139C773.92 215.027 772.048 215.471 769.912 215.471ZM771.244 203.555C771.988 203.555 772.636 203.279 773.188 202.727C773.74 202.175 774.016 201.539 774.016 200.819C774.016 200.075 773.74 199.427 773.188 198.875C772.636 198.323 771.988 198.047 771.244 198.047C770.5 198.047 769.852 198.323 769.3 198.875C768.772 199.427 768.508 200.075 768.508 200.819C768.508 201.539 768.772 202.175 769.3 202.727C769.852 203.279 770.5 203.555 771.244 203.555ZM787.116 209.315C786.3 209.315 785.628 209.051 785.1 208.523C784.596 207.971 784.212 207.239 783.948 206.327C783.684 205.415 783.504 204.371 783.408 203.195C783.312 202.019 783.264 200.807 783.264 199.559C783.264 198.719 783.276 197.867 783.3 197.003C783.348 196.115 783.468 195.299 783.66 194.555C783.876 193.811 784.224 193.211 784.704 192.755C785.208 192.275 785.916 192.035 786.828 192.035C787.476 192.035 788.064 192.191 788.592 192.503C789.12 192.791 789.456 193.235 789.6 193.835C790.152 193.331 790.848 192.971 791.688 192.755C792.552 192.515 793.44 192.395 794.352 192.395C795.12 192.395 795.9 192.587 796.692 192.971C797.484 193.331 798.156 193.835 798.708 194.483C799.26 195.131 799.536 195.863 799.536 196.679C799.536 197.375 799.272 198.035 798.744 198.659C798.24 199.283 797.52 199.595 796.584 199.595C796.176 199.595 795.84 199.547 795.576 199.451C795.312 199.331 795.06 199.223 794.82 199.127C794.58 199.031 794.292 198.983 793.956 198.983C793.068 198.983 792.252 199.343 791.508 200.063C790.788 200.759 790.428 201.707 790.428 202.907C790.428 203.531 790.404 204.215 790.356 204.959C790.332 205.679 790.224 206.375 790.032 207.047C789.864 207.719 789.552 208.271 789.096 208.703C788.64 209.111 787.98 209.315 787.116 209.315ZM806.724 209.315C805.548 209.315 804.468 209.135 803.484 208.775C802.524 208.415 801.756 207.875 801.18 207.155C800.604 206.411 800.316 205.475 800.316 204.347C800.316 203.387 800.604 202.571 801.18 201.899C801.756 201.227 802.524 200.711 803.484 200.351C804.468 199.991 805.548 199.811 806.724 199.811C807.42 199.811 808.056 199.871 808.632 199.991C809.208 200.087 809.604 200.207 809.82 200.351C809.82 199.799 809.592 199.319 809.136 198.911C808.68 198.479 807.888 198.263 806.76 198.263C806.232 198.263 805.812 198.311 805.5 198.407C805.212 198.479 804.948 198.575 804.708 198.695C804.468 198.815 804.192 198.923 803.88 199.019C803.592 199.091 803.196 199.127 802.692 199.127C801.948 199.127 801.348 198.935 800.892 198.551C800.46 198.143 800.244 197.531 800.244 196.715C800.244 195.971 800.448 195.335 800.856 194.807C801.288 194.255 801.84 193.799 802.512 193.439C803.184 193.079 803.904 192.815 804.672 192.647C805.464 192.479 806.22 192.395 806.94 192.395C809.076 192.395 810.816 192.791 812.16 193.583C813.504 194.351 814.5 195.359 815.148 196.607C815.796 197.855 816.12 199.211 816.12 200.675C816.12 201.491 816.048 202.247 815.904 202.943C815.784 203.639 815.616 204.179 815.4 204.563C815.736 204.851 815.988 205.187 816.156 205.571C816.348 205.955 816.444 206.351 816.444 206.759C816.444 207.431 816.216 208.031 815.76 208.559C815.328 209.063 814.704 209.315 813.888 209.315C813.264 209.315 812.772 209.219 812.412 209.027C812.052 208.835 811.692 208.583 811.332 208.271C810.756 208.607 810.12 208.871 809.424 209.063C808.728 209.231 807.828 209.315 806.724 209.315ZM807.444 205.679C807.996 205.679 808.404 205.571 808.668 205.355C808.956 205.115 809.1 204.851 809.1 204.563C809.1 204.275 808.956 204.023 808.668 203.807C808.404 203.567 807.996 203.447 807.444 203.447C806.916 203.447 806.508 203.567 806.22 203.807C805.932 204.023 805.788 204.275 805.788 204.563C805.788 204.851 805.932 205.115 806.22 205.355C806.508 205.571 806.916 205.679 807.444 205.679ZM826.848 209.243C825.936 209.243 825.204 208.919 824.652 208.271C824.1 207.623 823.68 206.735 823.392 205.607C823.128 204.455 822.948 203.123 822.852 201.611C821.388 201.491 820.248 201.203 819.432 200.747C818.64 200.291 818.244 199.499 818.244 198.371C818.244 197.243 818.64 196.451 819.432 195.995C820.248 195.515 821.388 195.203 822.852 195.059C822.972 192.923 823.296 191.027 823.824 189.371C824.376 187.715 825.264 186.431 826.488 185.519C827.712 184.583 829.428 184.115 831.636 184.115C832.86 184.115 833.928 184.403 834.84 184.979C835.776 185.555 836.244 186.455 836.244 187.679C836.244 188.951 835.836 189.887 835.02 190.487C834.228 191.063 833.268 191.459 832.14 191.675C831.252 191.843 830.628 192.239 830.268 192.863C829.908 193.463 829.68 194.171 829.584 194.987C831.744 195.035 833.388 195.263 834.516 195.671C835.668 196.079 836.244 196.979 836.244 198.371C836.244 199.283 835.98 199.979 835.452 200.459C834.924 200.915 834.156 201.227 833.148 201.395C832.164 201.563 831 201.659 829.656 201.683C829.656 202.643 829.668 203.519 829.692 204.311C829.716 205.079 829.728 205.787 829.728 206.435C829.728 207.203 829.572 207.791 829.26 208.199C828.948 208.607 828.564 208.883 828.108 209.027C827.676 209.171 827.256 209.243 826.848 209.243ZM841.968 191.855C840.792 191.855 839.796 191.435 838.98 190.595C838.164 189.731 837.756 188.687 837.756 187.463C837.756 186.647 837.936 185.915 838.296 185.267C838.68 184.619 839.184 184.103 839.808 183.719C840.456 183.311 841.176 183.107 841.968 183.107C842.736 183.107 843.432 183.311 844.056 183.719C844.704 184.103 845.22 184.619 845.604 185.267C845.988 185.915 846.18 186.647 846.18 187.463C846.18 188.279 845.988 189.023 845.604 189.695C845.22 190.343 844.704 190.871 844.056 191.279C843.432 191.663 842.736 191.855 841.968 191.855ZM841.968 209.315C841.008 209.315 840.288 209.039 839.808 208.487C839.352 207.935 839.04 207.095 838.872 205.967C838.728 204.815 838.644 203.339 838.62 201.539C838.62 199.739 838.692 198.263 838.836 197.111C839.004 195.959 839.328 195.119 839.808 194.591C840.288 194.039 841.008 193.763 841.968 193.763C842.928 193.763 843.636 194.039 844.092 194.591C844.572 195.119 844.896 195.959 845.064 197.111C845.232 198.263 845.316 199.739 845.316 201.539C845.34 203.339 845.268 204.815 845.1 205.967C844.932 207.095 844.608 207.935 844.128 208.487C843.648 209.039 842.928 209.315 841.968 209.315ZM856.806 209.279C855.27 209.255 853.83 208.883 852.486 208.163C851.142 207.419 850.05 206.399 849.21 205.103C848.394 203.807 847.986 202.343 847.986 200.711C847.986 198.959 848.394 197.471 849.21 196.247C850.05 194.999 851.13 194.051 852.45 193.403C853.794 192.731 855.21 192.395 856.698 192.395C858.234 192.395 859.578 192.695 860.73 193.295C861.882 193.871 862.77 194.627 863.394 195.563C864.042 196.475 864.366 197.423 864.366 198.407C864.366 199.223 864.114 199.871 863.61 200.351C863.13 200.807 862.362 201.035 861.306 201.035C860.73 201.035 860.286 200.927 859.974 200.711C859.686 200.471 859.434 200.207 859.218 199.919C859.026 199.631 858.786 199.379 858.498 199.163C858.234 198.923 857.838 198.803 857.31 198.803C856.686 198.803 856.134 199.019 855.654 199.451C855.198 199.883 854.97 200.459 854.97 201.179C854.97 201.923 855.198 202.511 855.654 202.943C856.11 203.351 856.662 203.555 857.31 203.555C857.814 203.555 858.198 203.483 858.462 203.339C858.726 203.171 858.954 202.979 859.146 202.763C859.362 202.547 859.626 202.367 859.938 202.223C860.25 202.055 860.706 201.971 861.306 201.971C862.362 201.971 863.13 202.259 863.61 202.835C864.114 203.387 864.366 203.975 864.366 204.599C864.366 205.391 864.054 206.147 863.43 206.867C862.806 207.587 861.93 208.175 860.802 208.631C859.674 209.063 858.342 209.279 856.806 209.279ZM874.81 209.351C873.034 209.375 871.474 209.015 870.13 208.271C868.81 207.503 867.766 206.471 866.998 205.175C866.254 203.855 865.858 202.403 865.81 200.819C865.786 199.187 866.158 197.747 866.926 196.499C867.694 195.227 868.762 194.219 870.13 193.475C871.498 192.731 873.058 192.359 874.81 192.359C876.538 192.335 878.062 192.695 879.382 193.439C880.726 194.183 881.794 195.191 882.586 196.463C883.378 197.735 883.798 199.187 883.846 200.819C883.87 202.379 883.498 203.807 882.73 205.103C881.962 206.375 880.894 207.395 879.526 208.163C878.158 208.907 876.586 209.303 874.81 209.351ZM874.918 204.095C875.566 204.095 876.13 203.843 876.61 203.339C877.09 202.835 877.33 202.247 877.33 201.575C877.33 200.903 877.09 200.327 876.61 199.847C876.13 199.343 875.566 199.091 874.918 199.091C874.27 199.091 873.706 199.343 873.226 199.847C872.746 200.327 872.506 200.903 872.506 201.575C872.506 202.247 872.746 202.835 873.226 203.339C873.706 203.843 874.27 204.095 874.918 204.095Z" fill="#6D73FA"/>
<defs>
<filter id="filter0_d_10_2" x="70.5555" y="123.135" width="693.373" height="52.0297" filterUnits="userSpaceOnUse" color-interpolation-filters="sRGB">
<feFlood flood-opacity="0" result="BackgroundImageFix"/>
<feColorMatrix in="SourceAlpha" type="matrix" values="0 0 0 0 0 0 0 0 0 0 0 0 0 0 0 0 0 0 127 0" result="hardAlpha"/>
<feOffset dx="7" dy="14"/>
<feGaussianBlur stdDeviation="2"/>
<feComposite in2="hardAlpha" operator="out"/>
<feColorMatrix type="matrix" values="0 0 0 0 0 0 0 0 0 0 0 0 0 0 0 0 0 0 0.25 0"/>
<feBlend mode="normal" in2="BackgroundImageFix" result="effect1_dropShadow_10_2"/>
<feBlend mode="normal" in="SourceGraphic" in2="effect1_dropShadow_10_2" result="shape"/>
</filter>
<filter id="filter1_d_10_2" x="112.057" y="40.9827" width="630.631" height="113.44" filterUnits="userSpaceOnUse" color-interpolation-filters="sRGB">
<feFlood flood-opacity="0" result="BackgroundImageFix"/>
<feColorMatrix in="SourceAlpha" type="matrix" values="0 0 0 0 0 0 0 0 0 0 0 0 0 0 0 0 0 0 127 0" result="hardAlpha"/>
<feOffset dx="13" dy="-4"/>
<feGaussianBlur stdDeviation="5"/>
<feComposite in2="hardAlpha" operator="out"/>
<feColorMatrix type="matrix" values="0 0 0 0 0 0 0 0 0 0 0 0 0 0 0 0 0 0 0.2 0"/>
<feBlend mode="normal" in2="BackgroundImageFix" result="effect1_dropShadow_10_2"/>
<feBlend mode="normal" in="SourceGraphic" in2="effect1_dropShadow_10_2" result="shape"/>
</filter>
</defs>
</svg>
