<svg width="112" height="112" viewBox="0 0 112 112" fill="none" xmlns="http://www.w3.org/2000/svg">
<g clip-path="url(#clip0_26_34)">
<path d="M0 97.5586C0 105.535 6.46581 112 14.4414 112H97.5581C105.535 112 112 105.534 112 97.5586V14.4419C112 6.46494 105.534 0 97.5586 0H14.4419C6.46494 0 0 6.46581 0 14.4414V97.5586Z" fill="#563D7C"/>
<path d="M46.4441 49.5416V33.6809H60.4052C61.7352 33.6809 63.0171 33.7916 64.2517 34.0134C65.4863 34.2348 66.5788 34.6303 67.5286 35.2004C68.478 35.7704 69.2379 36.5619 69.808 37.5747C70.3776 38.5879 70.6628 39.886 70.6628 41.4684C70.6628 44.3179 69.808 46.3759 68.0982 47.642C66.3889 48.9086 64.2045 49.5416 61.5449 49.5416H46.4441ZM31.5328 22.0938V89.9062H64.3943C67.4336 89.9062 70.3938 89.5265 73.2747 88.7666C76.1556 88.0066 78.7198 86.8354 80.9677 85.2526C83.2151 83.6697 85.0041 81.6274 86.3336 79.1267C87.6636 76.6255 88.3282 73.6654 88.3282 70.2463C88.3282 66.0039 87.2992 62.3792 85.2416 59.3718C83.1836 56.364 80.0651 54.2587 75.8861 53.0556C78.9255 51.5996 81.221 49.7315 82.7724 47.4521C84.3233 45.1727 85.099 42.3238 85.099 38.9043C85.099 35.7385 84.5766 33.0794 83.5319 30.9264C82.4871 28.7739 81.015 27.0484 79.1153 25.7504C77.2162 24.4523 74.9368 23.5182 72.2772 22.9486C69.6181 22.3786 66.6737 22.0938 63.4445 22.0938H31.5328ZM46.4441 78.3191V59.7039H62.6846C65.9138 59.7039 68.5099 60.4476 70.473 61.936C72.4356 63.4239 73.4173 65.9089 73.4173 69.3914C73.4173 71.1646 73.1163 72.6206 72.5148 73.7603C71.9132 74.9 71.106 75.8026 70.0928 76.4671C69.08 77.1321 67.9083 77.6068 66.5788 77.8921C65.2488 78.1764 63.8562 78.3191 62.3998 78.3191H46.4441Z" fill="white"/>
</g>
<defs>
<clipPath id="clip0_26_34">
<rect width="112" height="112" fill="white"/>
</clipPath>
</defs>
</svg>
