<svg width="90" height="124" viewBox="0 0 90 124" fill="none" xmlns="http://www.w3.org/2000/svg">
<g clip-path="url(#clip0_26_27)">
<path d="M81.4176 114.246L44.9994 123.916L8.58075 114.246L0.176849 24.4655H89.8226L81.4176 114.246Z" fill="#2062AF"/>
<path d="M44.9991 31.7376V116.204L45.0815 116.226L74.5532 108.4L81.3558 31.7376H44.9991Z" fill="#3C9CD7"/>
<path d="M24.3306 11.2749V5.93119H32.237V0.0838623H18.4009V16.6108H32.237V11.2749H24.3306ZM46.4596 5.93119H51.9871V0.0838623H38.1498V5.93119C40.001 7.75673 40.9665 8.63048 43.6439 11.2707C42.0788 11.2707 38.1498 11.2762 38.1498 11.276V16.6108H51.9871V11.2749L46.4596 5.93119ZM66.0715 5.93119H71.5988V0.0838623H57.7609V5.93119C59.6122 7.75673 60.5782 8.63048 63.2556 11.2707C61.691 11.2707 57.7609 11.2762 57.7609 11.276V16.6108H71.5991V11.2749L66.0715 5.93119Z" fill="black"/>
<path d="M44.9668 54.1865L18.9011 64.8914L19.7655 75.49L44.9668 64.8645L71.7744 53.5621L72.8859 42.7202L44.9668 54.1865Z" fill="white"/>
<path d="M18.9009 64.8914L19.7653 75.4901L44.9666 64.8645V54.1865L18.9009 64.8914Z" fill="url(#paint0_linear_26_27)"/>
<path d="M72.8859 42.7205L44.9668 54.1865V64.8645L71.7744 53.5622L72.8859 42.7205Z" fill="url(#paint1_linear_26_27)"/>
<path d="M18.941 64.8914L19.8057 75.49L58.4738 75.6116L57.6088 89.7429L44.8848 93.2754L32.6533 90.2299L31.9121 81.4586H20.5468L22.0294 98.3918L45.0083 105.092L67.8627 98.5134L70.8278 64.8914H18.941Z" fill="url(#paint2_linear_26_27)"/>
<path opacity="0.05" d="M44.9668 64.8914H18.9011L19.7655 75.49L44.9668 75.5694V64.8914ZM44.9668 93.2416L44.8433 93.2756L32.6133 90.2302L31.8722 81.4589H20.5072L21.9895 98.3921L44.9668 105.092V93.2416Z" fill="black"/>
<path d="M16.5536 42.7205H72.8859L71.7745 53.5624H17.9124L16.5536 42.7205Z" fill="url(#paint3_linear_26_27)"/>
<path opacity="0.05" d="M44.9668 42.7205H16.5536L17.9124 53.5624H44.9668V42.7205Z" fill="black"/>
</g>
<defs>
<linearGradient id="paint0_linear_26_27" x1="31.9337" y1="75.4903" x2="31.9337" y2="54.1868" gradientUnits="userSpaceOnUse">
<stop offset="0.387" stop-color="#D1D3D4" stop-opacity="0"/>
<stop offset="1" stop-color="#D1D3D4"/>
</linearGradient>
<linearGradient id="paint1_linear_26_27" x1="58.9261" y1="64.8648" x2="58.9261" y2="42.7207" gradientUnits="userSpaceOnUse">
<stop offset="0.387" stop-color="#D1D3D4" stop-opacity="0"/>
<stop offset="1" stop-color="#D1D3D4"/>
</linearGradient>
<linearGradient id="paint2_linear_26_27" x1="18.941" y1="84.9919" x2="70.8275" y2="84.9919" gradientUnits="userSpaceOnUse">
<stop stop-color="#E8E7E5"/>
<stop offset="1" stop-color="white"/>
</linearGradient>
<linearGradient id="paint3_linear_26_27" x1="16.5536" y1="48.1415" x2="72.8856" y2="48.1415" gradientUnits="userSpaceOnUse">
<stop stop-color="#E8E7E5"/>
<stop offset="1" stop-color="white"/>
</linearGradient>
<clipPath id="clip0_26_27">
<rect width="90" height="124" fill="white"/>
</clipPath>
</defs>
</svg>
