<svg width="89" height="126" viewBox="0 0 89 126" fill="none" xmlns="http://www.w3.org/2000/svg">
<g clip-path="url(#clip0_26_8)">
<path d="M88.8379 24.6995L80.7587 115.573L44.4421 125.682L8.22556 115.587L0.154694 24.6995H88.8379Z" fill="#E44D26"/>
<path d="M44.4963 117.955L73.842 109.786L80.7459 32.1307H44.4963V117.955Z" fill="#F16529"/>
<path d="M28.7905 54.425H44.4963V43.278H16.6573L16.9228 46.2685L19.6517 76.9867H44.4963V65.8397H29.8052L28.7905 54.425ZM31.2927 82.5604H20.1478L21.7031 100.063L44.4452 106.401L44.4963 106.387V94.7897L44.4476 94.8026L32.0832 91.4505L31.2927 82.5604Z" fill="#EBEBEB"/>
<path d="M8.40564 0H14.0476V5.5967H19.2089V0H24.8512V16.9482H19.2092V11.273H14.048V16.9482H8.40599L8.40564 0ZM32.2703 5.62044H27.3041V0H42.8826V5.62044H37.9133V16.9482H32.2713V5.62044H32.2703ZM45.355 0H51.2379L54.8567 5.95516L58.472 0H64.3573V16.9482H58.7383V8.54776L54.8567 14.5738H54.7593L50.8753 8.54776V16.9482H45.355V0ZM67.1651 0H72.8088V11.3463H80.7431V16.9482H67.1648V0H67.1651Z" fill="black"/>
<path d="M44.4581 76.9867H58.1292L56.8402 91.4436L44.4577 94.7991V106.396L67.2179 100.063L67.3848 98.1795L69.9941 68.833L70.2649 65.8397H44.4581V76.9867ZM44.4581 54.3978V54.425H71.2751L71.4976 51.9197L72.0037 46.2685L72.269 43.278H44.4581V54.3978Z" fill="white"/>
</g>
<defs>
<clipPath id="clip0_26_8">
<rect width="89" height="126" fill="white"/>
</clipPath>
</defs>
</svg>
