<svg width="92" height="129" viewBox="0 0 92 129" fill="none" xmlns="http://www.w3.org/2000/svg">
<g clip-path="url(#clip0_26_28)">
<path d="M92 25.2788H0L8.62478 118.442L45.9953 129L83.3659 118.442L92 25.2788Z" fill="#E6A329"/>
<path d="M45.9953 32.8691V121.105L76.274 112.561L83.6399 32.8691H45.9953Z" fill="#F1BF22"/>
<path d="M70.0838 44.2983H23.5287L20.2861 79.1761L20.3529 78.9591H59.9039L58.6157 93.7163L45.9965 97.3323L33.1911 93.6579L32.424 84.7262H20.8002L22.4584 102.573L45.9965 109.229L69.5451 102.573L72.7878 67.5416H30.8127L31.3514 55.8698H60.4742L60.9098 62.5572H72.632L70.0838 44.2983Z" fill="white"/>
<path d="M46.0059 44.2983H23.5287L20.2861 79.1761L20.3529 78.9591H46.0047V67.5812H32.4498L32.9885 55.9094H46.0059V44.2983ZM32.4498 84.732H20.799L22.4572 102.57L45.9953 109.219V97.3487L33.1899 93.6649L32.4498 84.732Z" fill="#EBEBEB"/>
<path d="M37.0497 11.5377H28.8593V17.3946H42.9119V0H37.0567L37.0497 11.5377ZM63.1371 0.0933185H48.8597V6.18235C50.7662 8.08138 51.7604 8.99474 54.5686 11.7453H48.8597V17.2978H63.136V11.7546L57.433 6.19168H63.1418L63.1371 0.0933185Z" fill="#231F20"/>
</g>
<defs>
<clipPath id="clip0_26_28">
<rect width="92" height="129" fill="white"/>
</clipPath>
</defs>
</svg>
